<?xml version="1.0" encoding="UTF-8"?>
<svg width="56px" height="65px" viewBox="0 0 56 65" version="1.1" xmlns="http://www.w3.org/2000/svg" xmlns:xlink="http://www.w3.org/1999/xlink">
    <!-- Generator: Sketch 52.6 (67491) - http://www.bohemiancoding.com/sketch -->
    <title>docs icon@2x</title>
    <desc></desc>
    <g id="Page-1" stroke="none" stroke-width="1" fill="none" fill-rule="evenodd">
        <g id="openinfra-labs-landing" transform="translate(-682.000000, -419.000000)" fill="#D33D3C">
            <g id="docs-icon" transform="translate(682.000000, 418.000000)">
                <path d="M5,45.7125 L36.26,45.7125 L36.26,5.9995 L5,5.9995 L5,45.7125 Z M43.487,52.9395 L43.487,13.2115 L41.26,13.1835 L41.26,50.7135 L12.227,50.7135 L12.227,52.9395 L43.487,52.9395 Z M50.714,60.1665 L50.714,20.4535 L48.487,20.4535 L48.487,54.2145 C48.496,55.1885 48.118,56.1205 47.422,56.8285 C46.726,57.5365 45.797,57.9305 44.805,57.9395 L19.475,57.9395 L19.475,60.1665 L50.714,60.1665 Z M18.189,65.1665 C16.158,65.1665 14.491,63.5145 14.475,61.4815 L14.475,57.9395 L10.952,57.9395 C9.957,57.9395 9.037,57.5625 8.337,56.8745 C7.63,56.1805 7.235,55.2505 7.227,54.2575 L7.227,50.7135 L3.556,50.7135 C1.595,50.7135 0,49.1175 0,47.1565 L0,4.5565 C0,2.5955 1.595,0.9995 3.556,0.9995 L37.704,0.9995 C39.665,0.9995 41.26,2.5955 41.26,4.5565 L41.26,8.1835 L44.803,8.2275 C46.829,8.2275 48.487,9.8935 48.487,11.9415 L48.487,15.4535 L51.999,15.4535 C54.029,15.4535 55.696,17.1055 55.714,19.1365 L55.714,61.4195 C55.739,62.3685 55.375,63.3015 54.689,64.0165 C54.004,64.7315 53.083,65.1395 52.096,65.1655 L18.189,65.1665 Z" id="Fill-1"></path>
                <path d="M11.3008,16.5654 C9.9228,16.5654 8.8008,15.4434 8.8008,14.0654 C8.8008,12.6874 9.9228,11.5654 11.3008,11.5654 L24.9408,11.5654 C26.3198,11.5654 27.4408,12.6874 27.4408,14.0654 C27.4408,15.4434 26.3198,16.5654 24.9408,16.5654 L11.3008,16.5654 Z" id="Fill-3"></path>
                <path d="M11.3008,22.5561 C9.9228,22.5561 8.8008,21.4341 8.8008,20.0561 C8.8008,18.6781 9.9228,17.5561 11.3008,17.5561 L24.9408,17.5561 C26.3198,17.5561 27.4408,18.6781 27.4408,20.0561 C27.4408,21.4341 26.3198,22.5561 24.9408,22.5561 L11.3008,22.5561 Z" id="Fill-4"></path>
            </g>
        </g>
    </g>
</svg>