<?xml version="1.0" encoding="utf-8"?>
<!-- Generator: Adobe Illustrator 24.1.2, SVG Export Plug-In . SVG Version: 6.00 Build 0)  -->
<svg version="1.1" id="Layer_1" xmlns="http://www.w3.org/2000/svg" xmlns:xlink="http://www.w3.org/1999/xlink" x="0px" y="0px"
	 viewBox="0 0 500 500" style="enable-background:new 0 0 500 500;" xml:space="preserve">
<style type="text/css">
	.st0{fill:#333333;}
	.st1{fill:#00CCFF;}
	.st2{fill:#025FDF;}
</style>
<g>
	<g>
		<path class="st0" d="M158.01,311.59c2.87,3.83,4.31,8.74,4.31,14.72c0,6.47-1.64,11.85-4.93,16.13
			c-3.85,5.03-9.35,7.55-16.49,7.55c-6.67,0-11.91-2.2-15.72-6.61c-3.4-4.25-5.1-9.62-5.1-16.1c0-5.86,1.46-10.87,4.37-15.04
			c3.74-5.35,9.26-8.02,16.58-8.02C148.67,304.22,154.33,306.68,158.01,311.59z M152.83,339.21c2.31-3.71,3.46-7.98,3.46-12.8
			c0-5.1-1.33-9.2-4-12.31s-6.31-4.66-10.93-4.66c-4.48,0-8.14,1.54-10.97,4.62c-2.83,3.08-4.25,7.62-4.25,13.62
			c0,4.8,1.21,8.85,3.64,12.15s6.37,4.94,11.81,4.94C146.78,344.77,150.52,342.92,152.83,339.21z"/>
		<path class="st0" d="M167.85,317.29h5.19v4.19c1.07-1.43,2.23-2.55,3.49-3.33c1.79-1.18,3.9-1.77,6.33-1.77
			c3.59,0,6.63,1.37,9.14,4.11c2.5,2.74,3.76,6.66,3.76,11.75c0,6.88-1.81,11.8-5.42,14.75c-2.29,1.87-4.96,2.8-7.99,2.8
			c-2.39,0-4.39-0.52-6.01-1.56c-0.95-0.59-2-1.6-3.17-3.04v16.13h-5.31V317.29z M187.83,342.05c1.65-2.07,2.47-5.18,2.47-9.31
			c0-2.52-0.37-4.68-1.09-6.49c-1.38-3.48-3.91-5.22-7.58-5.22c-3.69,0-6.22,1.84-7.58,5.52c-0.73,1.97-1.09,4.46-1.09,7.49
			c0,2.44,0.36,4.51,1.09,6.22c1.38,3.27,3.91,4.9,7.58,4.9C184.11,345.16,186.18,344.12,187.83,342.05z"/>
		<path class="st0" d="M222.31,318.01c2.09,1.05,3.68,2.41,4.78,4.09c1.06,1.59,1.76,3.45,2.11,5.57c0.31,1.46,0.47,3.77,0.47,6.96
			h-22.98c0.1,3.21,0.85,5.79,2.25,7.73c1.4,1.94,3.58,2.91,6.53,2.91c2.75,0,4.95-0.92,6.58-2.76c0.92-1.07,1.57-2.3,1.95-3.7h5.22
			c-0.14,1.16-0.6,2.45-1.37,3.88c-0.78,1.43-1.64,2.59-2.6,3.49c-1.6,1.57-3.58,2.63-5.94,3.19c-1.27,0.31-2.7,0.47-4.3,0.47
			c-3.91,0-7.22-1.43-9.94-4.29c-2.72-2.86-4.07-6.87-4.07-12.02c0-5.07,1.37-9.19,4.1-12.36c2.74-3.17,6.31-4.75,10.73-4.75
			C218.06,316.43,220.22,316.96,222.31,318.01z M224.21,330.41c-0.22-2.3-0.71-4.14-1.49-5.52c-1.44-2.56-3.85-3.83-7.22-3.83
			c-2.42,0-4.44,0.88-6.08,2.64c-1.64,1.76-2.5,4-2.6,6.71H224.21z"/>
		<path class="st0" d="M235.78,317.14h5.04v4.48c1.49-1.85,3.08-3.18,4.75-3.98c1.67-0.81,3.53-1.21,5.57-1.21
			c4.48,0,7.51,1.56,9.08,4.69c0.87,1.71,1.3,4.16,1.3,7.34v20.26h-5.4v-19.91c0-1.93-0.28-3.48-0.85-4.66
			c-0.94-1.97-2.65-2.95-5.13-2.95c-1.26,0-2.29,0.13-3.1,0.38c-1.46,0.43-2.73,1.3-3.83,2.6c-0.88,1.04-1.46,2.12-1.73,3.23
			c-0.27,1.11-0.4,2.7-0.4,4.76v16.55h-5.31V317.14z"/>
		<path class="st0" d="M268.09,305.4h5.93v43.33h-5.93V305.4z"/>
		<path class="st0" d="M280.42,317.14h5.04v4.48c1.49-1.85,3.08-3.18,4.75-3.98c1.67-0.81,3.53-1.21,5.57-1.21
			c4.48,0,7.51,1.56,9.08,4.69c0.87,1.71,1.3,4.16,1.3,7.34v20.26h-5.4v-19.91c0-1.93-0.28-3.48-0.85-4.66
			c-0.94-1.97-2.65-2.95-5.13-2.95c-1.26,0-2.29,0.13-3.1,0.38c-1.46,0.43-2.73,1.3-3.83,2.6c-0.88,1.04-1.46,2.12-1.73,3.23
			s-0.4,2.7-0.4,4.76v16.55h-5.31V317.14z"/>
		<path class="st0" d="M316.5,307.49c1.24-1.81,3.63-2.71,7.17-2.71c0.33,0,0.68,0.01,1.03,0.03c0.35,0.02,0.76,0.05,1.21,0.09v4.84
			c-0.56-0.04-0.96-0.06-1.21-0.07c-0.25-0.01-0.48-0.02-0.7-0.02c-1.63,0-2.6,0.42-2.92,1.25c-0.32,0.84-0.48,2.96-0.48,6.39h5.31
			v4.19h-5.31v27.25h-5.25v-27.25h-4.4v-4.19h4.4v-4.96C315.42,310.13,315.81,308.52,316.5,307.49z"/>
		<path class="st0" d="M331.55,317.14h5.04v5.46c0.41-1.06,1.43-2.35,3.04-3.88c1.61-1.52,3.47-2.29,5.57-2.29
			c0.1,0,0.27,0.01,0.5,0.03c0.24,0.02,0.64,0.06,1.21,0.12v5.6c-0.32-0.06-0.6-0.1-0.87-0.12s-0.56-0.03-0.87-0.03
			c-2.67,0-4.73,0.86-6.16,2.58c-1.43,1.72-2.15,3.7-2.15,5.94v18.17h-5.31V317.14z"/>
		<path class="st0" d="M368.45,329.61c1.22-0.16,2.04-0.67,2.45-1.53c0.24-0.47,0.35-1.15,0.35-2.04c0-1.82-0.64-3.13-1.93-3.95
			c-1.29-0.82-3.13-1.23-5.52-1.23c-2.77,0-4.73,0.75-5.89,2.25c-0.65,0.83-1.07,2.07-1.26,3.7h-4.96c0.1-3.9,1.36-6.62,3.79-8.15
			c2.43-1.53,5.24-2.29,8.44-2.29c3.71,0,6.73,0.71,9.04,2.12c2.3,1.42,3.45,3.62,3.45,6.61v18.2c0,0.55,0.11,0.99,0.34,1.33
			c0.23,0.33,0.7,0.5,1.43,0.5c0.24,0,0.5-0.01,0.8-0.04c0.29-0.03,0.61-0.07,0.94-0.13v3.92c-0.83,0.24-1.45,0.38-1.89,0.44
			c-0.43,0.06-1.02,0.09-1.77,0.09c-1.83,0-3.16-0.65-3.98-1.95c-0.43-0.69-0.74-1.66-0.91-2.92c-1.08,1.42-2.63,2.64-4.66,3.69
			c-2.03,1.04-4.26,1.56-6.7,1.56c-2.93,0-5.32-0.89-7.18-2.67c-1.86-1.78-2.79-4-2.79-6.67c0-2.93,0.91-5.19,2.74-6.81
			c1.83-1.61,4.23-2.6,7.2-2.97L368.45,329.61z M357.27,343.95c1.12,0.88,2.45,1.32,3.98,1.32c1.87,0,3.68-0.43,5.43-1.3
			c2.95-1.43,4.42-3.78,4.42-7.04v-4.27c-0.65,0.42-1.48,0.76-2.5,1.04c-1.02,0.28-2.02,0.47-3,0.59l-3.21,0.41
			c-1.92,0.26-3.37,0.66-4.34,1.21c-1.64,0.92-2.46,2.39-2.46,4.41C355.59,341.86,356.15,343.07,357.27,343.95z"/>
		<path class="st0" d="M183.13,375.43h9.08v35.66h21.71v7.82h-30.79V375.43z"/>
		<path class="st0" d="M232.98,399.35c1.56-0.2,2.68-0.44,3.36-0.74c1.21-0.51,1.81-1.31,1.81-2.39c0-1.32-0.46-2.23-1.39-2.73
			c-0.93-0.5-2.29-0.75-4.08-0.75c-2.01,0-3.44,0.49-4.27,1.47c-0.6,0.73-1,1.71-1.2,2.95h-8.11c0.18-2.81,0.97-5.12,2.37-6.93
			c2.23-2.83,6.06-4.25,11.49-4.25c3.53,0,6.67,0.7,9.42,2.09c2.74,1.4,4.12,4.03,4.12,7.91v14.75c0,1.02,0.02,2.26,0.06,3.72
			c0.06,1.1,0.23,1.85,0.5,2.24c0.28,0.39,0.69,0.72,1.24,0.97v1.24h-9.14c-0.26-0.65-0.43-1.26-0.53-1.83
			c-0.1-0.57-0.18-1.22-0.24-1.95c-1.17,1.26-2.51,2.33-4.03,3.21c-1.82,1.04-3.88,1.56-6.17,1.56c-2.93,0-5.34-0.83-7.25-2.49
			c-1.91-1.66-2.86-4.02-2.86-7.06c0-3.95,1.53-6.81,4.61-8.58c1.68-0.96,4.16-1.65,7.43-2.07L232.98,399.35z M238.12,403.28
			c-0.54,0.33-1.08,0.6-1.63,0.81c-0.55,0.21-1.3,0.4-2.26,0.57l-1.91,0.35c-1.79,0.32-3.08,0.7-3.86,1.15
			c-1.32,0.77-1.98,1.96-1.98,3.57c0,1.43,0.4,2.47,1.21,3.11c0.81,0.64,1.79,0.96,2.95,0.96c1.84,0,3.53-0.53,5.08-1.59
			c1.55-1.06,2.35-3,2.41-5.81V403.28z"/>
		<path class="st0" d="M281.29,390.62c2.41,3.05,3.61,6.98,3.61,11.8c0,4.99-1.19,9.13-3.56,12.42c-2.37,3.28-5.68,4.93-9.93,4.93
			c-2.67,0-4.81-0.53-6.43-1.59c-0.97-0.63-2.02-1.73-3.14-3.3v4.04h-8.29v-43.42h8.41v15.46c1.07-1.49,2.25-2.63,3.53-3.42
			c1.52-0.98,3.46-1.47,5.82-1.47C275.56,386.05,278.89,387.58,281.29,390.62z M274.27,410.21c1.21-1.75,1.81-4.05,1.81-6.9
			c0-2.28-0.3-4.17-0.89-5.66c-1.13-2.83-3.21-4.25-6.24-4.25c-3.07,0-5.19,1.39-6.33,4.16c-0.6,1.47-0.89,3.38-0.89,5.72
			c0,2.75,0.61,5.03,1.84,6.84c1.23,1.81,3.1,2.71,5.62,2.71C271.36,412.83,273.06,411.96,274.27,410.21z"/>
		<path class="st0" d="M297.26,408.65c0.18,1.49,0.56,2.56,1.16,3.18c1.05,1.12,2.98,1.68,5.81,1.68c1.66,0,2.98-0.25,3.96-0.74
			c0.98-0.49,1.47-1.23,1.47-2.21c0-0.94-0.39-1.66-1.18-2.15c-0.79-0.49-3.72-1.34-8.79-2.54c-3.65-0.9-6.23-2.03-7.72-3.39
			c-1.49-1.34-2.24-3.26-2.24-5.78c0-2.97,1.17-5.52,3.5-7.65c2.34-2.13,5.62-3.2,9.86-3.2c4.02,0,7.3,0.8,9.83,2.4
			c2.53,1.6,3.99,4.37,4.36,8.3h-8.41c-0.12-1.08-0.42-1.94-0.92-2.57c-0.93-1.14-2.5-1.71-4.73-1.71c-1.83,0-3.14,0.29-3.92,0.85
			c-0.78,0.57-1.17,1.24-1.17,2.01c0,0.96,0.41,1.66,1.24,2.1c0.83,0.45,3.75,1.23,8.78,2.33c3.35,0.79,5.86,1.98,7.53,3.57
			c1.65,1.61,2.48,3.63,2.48,6.05c0,3.18-1.19,5.79-3.56,7.8c-2.37,2.01-6.04,3.02-11.01,3.02c-5.06,0-8.8-1.07-11.22-3.2
			c-2.41-2.13-3.62-4.85-3.62-8.15H297.26z"/>
	</g>
	<g>
		<circle class="st1" cx="250" cy="94.63" r="14.63"/>
		<g>
			<path class="st2" d="M272.3,119.02c2.04,1.99,3.31,4.77,3.31,7.84c0,3.14-1.36,6.11-3.66,8.17v90.58
				c0,12.1-9.84,21.95-21.95,21.95c-12.1,0-21.95-9.84-21.95-21.95v-90.58c-2.3-2.06-3.66-5.03-3.66-8.17
				c0-3.07,1.27-5.85,3.31-7.84c-33.59,9.67-58.17,40.63-58.17,77.33c0,44.44,36.03,80.47,80.47,80.47s80.47-36.03,80.47-80.47
				C330.47,159.65,305.89,128.69,272.3,119.02z"/>
		</g>
		<path class="st2" d="M260.08,119.02h-20.16c-2.51,0-4.55,0.99-4.55,2.21v0c0,1.22,2.04,2.21,4.55,2.21h20.16
			c2.51,0,4.55-0.99,4.55-2.21v0C264.63,120.01,262.59,119.02,260.08,119.02z"/>
		<path class="st1" d="M263.43,139.01c-2.28,5.26-7.56,8.91-13.69,8.81c-7.98-0.14-14.37,6.65-14.37,14.63l0,63.16
			c0,8.08,6.55,14.63,14.63,14.63c8.08,0,14.63-6.55,14.63-14.63v-86.39C264.63,138.53,263.71,138.37,263.43,139.01z M242.68,185.38
			c-2.02,0-3.66-1.64-3.66-3.66c0-2.02,1.64-3.66,3.66-3.66c2.02,0,3.66,1.64,3.66,3.66C246.34,183.74,244.7,185.38,242.68,185.38z
			 M248.17,196.35c-1.01,0-1.83-0.82-1.83-1.83c0-1.01,0.82-1.83,1.83-1.83c1.01,0,1.83,0.82,1.83,1.83
			C250,195.53,249.18,196.35,248.17,196.35z M253.66,170.75c-4.04,0-7.32-3.28-7.32-7.32c0-4.04,3.28-7.32,7.32-7.32
			c4.04,0,7.32,3.28,7.32,7.32C260.97,167.48,257.7,170.75,253.66,170.75z"/>
	</g>
</g>
</svg>
