<svg id="Layer_1" data-name="Layer 1" xmlns="http://www.w3.org/2000/svg" viewBox="0 0 399.34 30.64"><defs><style>.cls-1{fill:#fff;}.cls-2{fill:#f7b749;}.cls-3{fill:#ed362f;}.cls-4{fill:#43b85c;}.cls-5{fill:#2cb4e2;}</style></defs><path class="cls-1" d="M97.15,57.66a5.22,5.22,0,0,1-3.82-1.24,5.21,5.21,0,0,1-1.24-3.83V47.37a5.17,5.17,0,0,1,1.24-3.83,5.19,5.19,0,0,1,3.82-1.21h2.71a5.22,5.22,0,0,1,3.83,1.24,5.17,5.17,0,0,1,1.24,3.83v5.19a5.21,5.21,0,0,1-1.24,3.83,5.22,5.22,0,0,1-3.83,1.24Zm0-1.9h2.71a5.09,5.09,0,0,0,1.9-.29,1.75,1.75,0,0,0,1-1,5.09,5.09,0,0,0,.29-1.9V47.4a5.06,5.06,0,0,0-.29-1.89,1.75,1.75,0,0,0-1-1,4.87,4.87,0,0,0-1.9-.3H97.15a5.27,5.27,0,0,0-1.88.27,1.8,1.8,0,0,0-1,1A5.06,5.06,0,0,0,94,47.37v5.22a5.09,5.09,0,0,0,.29,1.9,1.73,1.73,0,0,0,1,1A5.12,5.12,0,0,0,97.15,55.76Z" transform="translate(-50.33 -34.68)"/><path class="cls-1" d="M109.81,62.17a.83.83,0,0,1-1-.94V47.15a1,1,0,0,1,1.9,0v.28a3.87,3.87,0,0,1,1.5-.92,6.12,6.12,0,0,1,2-.31h.86a3.87,3.87,0,0,1,4.43,4.43v2.6a3.89,3.89,0,0,1-4.43,4.43h-4.38v3.57A.84.84,0,0,1,109.81,62.17Zm1-6.41h4.38a2.87,2.87,0,0,0,2-.53,2.88,2.88,0,0,0,.52-2v-2.6a2.87,2.87,0,0,0-.52-2,2.87,2.87,0,0,0-2-.52h-.86a7.73,7.73,0,0,0-2.44.34c-.68.22-1,.58-1.08,1.07Z" transform="translate(-50.33 -34.68)"/><path class="cls-1" d="M124.86,52.71v.54a2.76,2.76,0,0,0,.53,2,2.85,2.85,0,0,0,2,.53h1.85a4.86,4.86,0,0,0,1.71-.22,1.16,1.16,0,0,0,.73-.75,1.47,1.47,0,0,1,.35-.66.89.89,0,0,1,.67-.23,1,1,0,0,1,.72.25.77.77,0,0,1,.16.73A3,3,0,0,1,132.25,57a5.61,5.61,0,0,1-3,.69h-1.85a4.58,4.58,0,0,1-3.34-1.09A4.49,4.49,0,0,1,123,53.25V50.63a4.58,4.58,0,0,1,1.09-3.38,4.53,4.53,0,0,1,3.34-1h1.85a4.59,4.59,0,0,1,3.35,1.08,4.56,4.56,0,0,1,1.08,3.35v1.13a.84.84,0,0,1-.95,1Zm2.53-4.61a2.72,2.72,0,0,0-2,.51,2.83,2.83,0,0,0-.53,2v.18h6.91v-.18a2.87,2.87,0,0,0-.52-2,2.87,2.87,0,0,0-2-.52Z" transform="translate(-50.33 -34.68)"/><path class="cls-1" d="M138.55,57.66a.84.84,0,0,1-1-.95V47.15a.95.95,0,1,1,1.9,0v.37A4.52,4.52,0,0,1,143,46.2h.63a3.87,3.87,0,0,1,4.43,4.43v6.08a1,1,0,0,1-1.9,0V50.63a2.81,2.81,0,0,0-.54-2,2.86,2.86,0,0,0-2-.52H143a8,8,0,0,0-2.37.31c-.67.21-1,.53-1.16,1v7.32A.84.84,0,0,1,138.55,57.66Z" transform="translate(-50.33 -34.68)"/><path class="cls-1" d="M160.15,57.66a.85.85,0,0,1-1-.95V43.31a1,1,0,0,1,.24-.73,1,1,0,0,1,.71-.22.81.81,0,0,1,.95,1v13.4a1,1,0,0,1-.22.71A1,1,0,0,1,160.15,57.66Z" transform="translate(-50.33 -34.68)"/><path class="cls-1" d="M166.53,57.66a.84.84,0,0,1-.95-.95V47.15a.95.95,0,1,1,1.9,0v.37A4.5,4.5,0,0,1,171,46.2h.63A4.59,4.59,0,0,1,175,47.28a4.59,4.59,0,0,1,1.08,3.35v6.08a.95.95,0,0,1-1.9,0V50.63a2.87,2.87,0,0,0-.53-2,2.88,2.88,0,0,0-2-.52H171a7.94,7.94,0,0,0-2.36.31c-.67.21-1.06.53-1.16,1v7.32A.84.84,0,0,1,166.53,57.66Z" transform="translate(-50.33 -34.68)"/><path class="cls-1" d="M181.69,57.66a.84.84,0,0,1-.95-.95V48.1h-.84a1,1,0,0,1,0-1.9h.84v-.09a4.52,4.52,0,0,1,1.07-3.3,4.52,4.52,0,0,1,3.29-1.06c.54,0,.82.31.82,1s-.28.94-.82.94a2.77,2.77,0,0,0-1.94.51,2.74,2.74,0,0,0-.52,2v.09H185a.95.95,0,1,1,0,1.9h-2.33v8.61A.84.84,0,0,1,181.69,57.66Z" transform="translate(-50.33 -34.68)"/><path class="cls-1" d="M189.76,57.66a.84.84,0,0,1-.95-.95V47.15a.95.95,0,0,1,1.9,0V48a4.22,4.22,0,0,1,1.7-1.37,5.65,5.65,0,0,1,2.36-.46.95.95,0,1,1,0,1.9,5.16,5.16,0,0,0-3,.72,2.34,2.34,0,0,0-1.08,1.91v6A.84.84,0,0,1,189.76,57.66Z" transform="translate(-50.33 -34.68)"/><path class="cls-1" d="M201.08,57.66a3.84,3.84,0,0,1-2.83-.93,3.88,3.88,0,0,1-.92-2.83,3.29,3.29,0,0,1,3.75-3.75h4.78a2.18,2.18,0,0,0-.62-1.62,3.17,3.17,0,0,0-1.9-.43H202a7,7,0,0,0-1.69.15,1.19,1.19,0,0,0-.78.55,1.77,1.77,0,0,1-.41.65,1.22,1.22,0,0,1-1.39-.08.66.66,0,0,1-.16-.71A2.88,2.88,0,0,1,199,46.79a6.45,6.45,0,0,1,3-.59h1.31a3.87,3.87,0,0,1,4.43,4.43v6.08a1,1,0,0,1-1.9,0V56.2a4.33,4.33,0,0,1-3.53,1.46Zm0-1.9h1.26a7.14,7.14,0,0,0,1.57-.16,3,3,0,0,0,1.26-.55,2,2,0,0,0,.7-1.17V52.05h-4.79a2.2,2.2,0,0,0-1.49.37,2.2,2.2,0,0,0-.37,1.48,2.18,2.18,0,0,0,.37,1.49A2.2,2.2,0,0,0,201.08,55.76Z" transform="translate(-50.33 -34.68)"/><path class="cls-1" d="M214.7,57.66a3.84,3.84,0,0,1-2.27-.6,2.76,2.76,0,0,1-1.07-1.78.83.83,0,0,1,.18-.74,1,1,0,0,1,.75-.27.85.85,0,0,1,.67.23,1.7,1.7,0,0,1,.34.69.73.73,0,0,0,.46.45,2.86,2.86,0,0,0,.94.12h3.71a1.81,1.81,0,0,0,1.19-.29,2.55,2.55,0,0,0,0-2.4,1.74,1.74,0,0,0-1.19-.3h-3.64a2.91,2.91,0,0,1-3.28-3.27A3.38,3.38,0,0,1,212.3,47a3.32,3.32,0,0,1,2.47-.82h3.53c1.77,0,2.81.74,3.14,2.24a.75.75,0,0,1-.18.73,1.05,1.05,0,0,1-.75.26.86.86,0,0,1-.65-.23,1.54,1.54,0,0,1-.34-.65.68.68,0,0,0-.42-.36,2.7,2.7,0,0,0-.8-.09h-3.53a1.64,1.64,0,0,0-1.12.26,1.71,1.71,0,0,0-.26,1.14,1.12,1.12,0,0,0,1.38,1.38h3.64a3,3,0,0,1,3.39,3.39,3,3,0,0,1-3.39,3.39Z" transform="translate(-50.33 -34.68)"/><path class="cls-1" d="M230.43,57.66a4.5,4.5,0,0,1-3.3-1.07,4.44,4.44,0,0,1-1.06-3.27V48.1H225a.95.95,0,0,1,0-1.9h1.11V44.55a.95.95,0,1,1,1.9,0V46.2h2.6a1,1,0,1,1,0,1.9H228v5.22a2.67,2.67,0,0,0,.52,1.93,2.77,2.77,0,0,0,1.94.51,1,1,0,0,1,.7.22.92.92,0,0,1,.25.73A.84.84,0,0,1,230.43,57.66Z" transform="translate(-50.33 -34.68)"/><path class="cls-1" d="M235.79,57.66a.84.84,0,0,1-.95-.95V47.15a1,1,0,0,1,1.9,0V48a4.22,4.22,0,0,1,1.7-1.37,5.71,5.71,0,0,1,2.36-.46.95.95,0,1,1,0,1.9,5.18,5.18,0,0,0-3,.72,2.37,2.37,0,0,0-1.08,1.91v6A.84.84,0,0,1,235.79,57.66Z" transform="translate(-50.33 -34.68)"/><path class="cls-1" d="M253.57,46.2a.84.84,0,0,1,1,.95v9.56a1,1,0,0,1-1.9,0v-.38a4.48,4.48,0,0,1-3.52,1.33h-.64A3.88,3.88,0,0,1,244,53.23V47.15a1,1,0,0,1,1.9,0v6.08a2.8,2.8,0,0,0,.54,2,2.86,2.86,0,0,0,2,.53h.64a8.28,8.28,0,0,0,2.36-.31c.67-.21,1.06-.54,1.16-1V47.15A.84.84,0,0,1,253.57,46.2Z" transform="translate(-50.33 -34.68)"/><path class="cls-1" d="M262.88,57.66a3.89,3.89,0,0,1-4.43-4.43V50.6a4.56,4.56,0,0,1,1.08-3.34,4.49,4.49,0,0,1,3.35-1.06h1.85a5.3,5.3,0,0,1,2.65.56,2.59,2.59,0,0,1,1.24,1.74.77.77,0,0,1-.16.74,1.09,1.09,0,0,1-.77.26.83.83,0,0,1-.64-.23,2.05,2.05,0,0,1-.37-.63.93.93,0,0,0-.62-.42,5.62,5.62,0,0,0-1.33-.12h-1.85a2.76,2.76,0,0,0-2,.5,2.8,2.8,0,0,0-.54,2v2.63a2.82,2.82,0,0,0,.54,2,2.84,2.84,0,0,0,2,.53h1.85a5.62,5.62,0,0,0,1.33-.12.94.94,0,0,0,.62-.43,1.9,1.9,0,0,1,.38-.64.9.9,0,0,1,.66-.21,1,1,0,0,1,.74.26.74.74,0,0,1,.16.73,2.57,2.57,0,0,1-1.24,1.73,5.08,5.08,0,0,1-2.65.58Z" transform="translate(-50.33 -34.68)"/><path class="cls-1" d="M277.19,57.66a3.81,3.81,0,0,1-4.37-4.34V48.1h-1.1a1,1,0,1,1,0-1.9h1.1V44.55a.95.95,0,0,1,1.9,0V46.2h2.6a.95.95,0,1,1,0,1.9h-2.6v5.22a2.72,2.72,0,0,0,.52,1.93,2.82,2.82,0,0,0,1.95.51,1,1,0,0,1,.69.22.92.92,0,0,1,.25.73A.84.84,0,0,1,277.19,57.66Z" transform="translate(-50.33 -34.68)"/><path class="cls-1" d="M290.9,46.2a.83.83,0,0,1,1,.95v9.56a1,1,0,0,1-1.9,0v-.38a4.47,4.47,0,0,1-3.52,1.33h-.64a3.87,3.87,0,0,1-4.42-4.43V47.15a.95.95,0,1,1,1.89,0v6.08a2.8,2.8,0,0,0,.54,2,2.86,2.86,0,0,0,2,.53h.64a8.28,8.28,0,0,0,2.36-.31c.67-.21,1.06-.54,1.16-1V47.15A.84.84,0,0,1,290.9,46.2Z" transform="translate(-50.33 -34.68)"/><path class="cls-1" d="M297.27,57.66a.84.84,0,0,1-.95-.95V47.15a.95.95,0,0,1,1.9,0V48a4.36,4.36,0,0,1,1.7-1.37,5.73,5.73,0,0,1,2.37-.46.95.95,0,1,1,0,1.9,5.16,5.16,0,0,0-3,.72,2.38,2.38,0,0,0-1.09,1.91v6A.84.84,0,0,1,297.27,57.66Z" transform="translate(-50.33 -34.68)"/><path class="cls-1" d="M306.65,52.71v.54a2.81,2.81,0,0,0,.53,2,2.87,2.87,0,0,0,2,.53H311a4.84,4.84,0,0,0,1.7-.22,1.18,1.18,0,0,0,.74-.75,1.47,1.47,0,0,1,.34-.66.91.91,0,0,1,.67-.23,1,1,0,0,1,.73.25.77.77,0,0,1,.15.73A2.93,2.93,0,0,1,314,57a5.55,5.55,0,0,1-3,.69h-1.86a4.58,4.58,0,0,1-3.34-1.09,4.53,4.53,0,0,1-1.09-3.32V50.63a4.62,4.62,0,0,1,1.09-3.38,4.53,4.53,0,0,1,3.34-1H311a3.87,3.87,0,0,1,4.43,4.43v1.13a.84.84,0,0,1-1,1Zm2.53-4.61a2.74,2.74,0,0,0-2,.51,2.88,2.88,0,0,0-.53,2v.18h6.92v-.18a2.87,2.87,0,0,0-.53-2,2.86,2.86,0,0,0-2-.52Z" transform="translate(-50.33 -34.68)"/><path class="cls-1" d="M327.22,57.66a.84.84,0,0,1-1-.95V43.28a.84.84,0,0,1,1-1h8.31a.94.94,0,0,1,.7.26.93.93,0,0,1,.25.69.84.84,0,0,1-1,.95h-7.37V49h4.55a.95.95,0,0,1,0,1.9h-4.55v5.83A.84.84,0,0,1,327.22,57.66Z" transform="translate(-50.33 -34.68)"/><path class="cls-1" d="M340.91,57.66a4.58,4.58,0,0,1-3.34-1.09,4.49,4.49,0,0,1-1.09-3.32V50.63a4.52,4.52,0,0,1,1.09-3.35,4.58,4.58,0,0,1,3.34-1.08h1.85a4.59,4.59,0,0,1,3.35,1.08,4.59,4.59,0,0,1,1.08,3.35v2.6a3.88,3.88,0,0,1-4.43,4.43Zm-2.53-4.41a2.81,2.81,0,0,0,.53,2,2.85,2.85,0,0,0,2,.53h1.85a2.87,2.87,0,0,0,2-.53,2.88,2.88,0,0,0,.52-2v-2.6a2.87,2.87,0,0,0-.52-2,2.87,2.87,0,0,0-2-.52h-1.85a4.13,4.13,0,0,0-1.53.22,1.34,1.34,0,0,0-.78.77,4.19,4.19,0,0,0-.22,1.54Z" transform="translate(-50.33 -34.68)"/><path class="cls-1" d="M360.43,46.2a.83.83,0,0,1,.95.95v9.56a1,1,0,1,1-1.9,0v-.38A4.47,4.47,0,0,1,356,57.66h-.63a3.87,3.87,0,0,1-4.43-4.43V47.15a.95.95,0,1,1,1.9,0v6.08a2.81,2.81,0,0,0,.53,2,2.89,2.89,0,0,0,2,.53H356a8.28,8.28,0,0,0,2.36-.31c.67-.21,1.06-.54,1.16-1V47.15A.84.84,0,0,1,360.43,46.2Z" transform="translate(-50.33 -34.68)"/><path class="cls-1" d="M366.81,57.66a.84.84,0,0,1-.95-.95V47.15a.95.95,0,1,1,1.9,0v.37a4.5,4.5,0,0,1,3.52-1.32h.63a4.59,4.59,0,0,1,3.35,1.08,4.59,4.59,0,0,1,1.08,3.35v6.08a1,1,0,0,1-1.9,0V50.63a2.87,2.87,0,0,0-.53-2,2.88,2.88,0,0,0-2-.52h-.63a7.94,7.94,0,0,0-2.36.31c-.67.21-1.06.53-1.16,1v7.32A.84.84,0,0,1,366.81,57.66Z" transform="translate(-50.33 -34.68)"/><path class="cls-1" d="M384.48,57.66a3.89,3.89,0,0,1-4.43-4.43v-2.6a4.55,4.55,0,0,1,1.09-3.35,4.58,4.58,0,0,1,3.34-1.08h4.38V42.7a.95.95,0,1,1,1.9,0v14a1,1,0,1,1-1.9,0v-.16a3.3,3.3,0,0,1-1.39.82,6.8,6.8,0,0,1-2.13.29Zm0-1.9h.86a7,7,0,0,0,2.5-.39q1-.37,1-1.17V48.1h-4.38a2.85,2.85,0,0,0-2,.53,2.84,2.84,0,0,0-.53,2v2.6a2.82,2.82,0,0,0,.53,2A2.89,2.89,0,0,0,384.48,55.76Z" transform="translate(-50.33 -34.68)"/><path class="cls-1" d="M398.53,57.66a3.3,3.3,0,0,1-3.75-3.76,3.29,3.29,0,0,1,3.75-3.75h4.78a2.11,2.11,0,0,0-.62-1.62,3.15,3.15,0,0,0-1.9-.43h-1.31a6.94,6.94,0,0,0-1.68.15,1.19,1.19,0,0,0-.78.55,1.91,1.91,0,0,1-.42.65,1,1,0,0,1-.64.18,1,1,0,0,1-.75-.26.7.7,0,0,1-.16-.71,2.9,2.9,0,0,1,1.42-1.87,6.38,6.38,0,0,1,3-.59h1.31a4.59,4.59,0,0,1,3.35,1.08,4.59,4.59,0,0,1,1.08,3.35v6.08a1,1,0,0,1-1.9,0V56.2a4.31,4.31,0,0,1-3.52,1.46Zm0-1.9h1.27a7.14,7.14,0,0,0,1.57-.16,3,3,0,0,0,1.26-.55,2,2,0,0,0,.69-1.17V52.05h-4.79a2.17,2.17,0,0,0-1.48.37,1.88,1.88,0,0,0,1.48,3.34Z" transform="translate(-50.33 -34.68)"/><path class="cls-1" d="M414.31,57.66A3.8,3.8,0,0,1,410,53.32V48.1h-1.11a1,1,0,1,1,0-1.9H410V44.55a.95.95,0,1,1,1.89,0V46.2h2.6a1,1,0,0,1,0,1.9h-2.6v5.22a2.72,2.72,0,0,0,.52,1.93,2.82,2.82,0,0,0,1.95.51A1,1,0,0,1,415,56a.92.92,0,0,1,.25.73A.84.84,0,0,1,414.31,57.66Z" transform="translate(-50.33 -34.68)"/><path class="cls-1" d="M419.35,44.35a1,1,0,0,1-1.08-1.08v-.68a.94.94,0,0,1,1.08-1.05H420a.92.92,0,0,1,1,1.05v.68q0,1.08-1,1.08Zm.31,13.31a.84.84,0,0,1-1-.95V47.15a.95.95,0,1,1,1.9,0v9.56A.84.84,0,0,1,419.66,57.66Z" transform="translate(-50.33 -34.68)"/><path class="cls-1" d="M429,57.66a4.58,4.58,0,0,1-3.34-1.09,4.53,4.53,0,0,1-1.09-3.32V50.63a4.56,4.56,0,0,1,1.09-3.35A4.58,4.58,0,0,1,429,46.2h1.85a3.86,3.86,0,0,1,4.43,4.43v2.6a3.88,3.88,0,0,1-4.43,4.43Zm-2.53-4.41a2.81,2.81,0,0,0,.53,2,2.87,2.87,0,0,0,2,.53h1.85a2.87,2.87,0,0,0,2-.53,2.87,2.87,0,0,0,.53-2v-2.6a2.87,2.87,0,0,0-.53-2,2.87,2.87,0,0,0-2-.52H429a4.2,4.2,0,0,0-1.53.22,1.33,1.33,0,0,0-.77.77,4.16,4.16,0,0,0-.23,1.54Z" transform="translate(-50.33 -34.68)"/><path class="cls-1" d="M440.13,57.66a.84.84,0,0,1-.94-.95V47.15a.95.95,0,1,1,1.89,0v.37a4.54,4.54,0,0,1,3.53-1.32h.63a4.59,4.59,0,0,1,3.35,1.08,4.59,4.59,0,0,1,1.08,3.35v6.08a1,1,0,1,1-1.9,0V50.63a2.87,2.87,0,0,0-.53-2,2.89,2.89,0,0,0-2-.52h-.63a7.94,7.94,0,0,0-2.36.31c-.67.21-1.06.53-1.17,1v7.32A.84.84,0,0,1,440.13,57.66Z" transform="translate(-50.33 -34.68)"/><polygon class="cls-2" points="0 5.11 0 7.66 17.57 7.66 0 25.23 1.81 27.03 23.73 5.11 0 5.11"/><polygon class="cls-3" points="26.28 2.55 28.84 0 0 0 0 2.55 26.28 2.55"/><polygon class="cls-4" points="28.09 4.36 28.09 30.64 30.64 30.64 30.64 1.8 28.09 4.36"/><polygon class="cls-5" points="25.54 30.64 25.54 6.91 3.61 28.84 5.42 30.64 22.98 13.08 22.98 30.64 25.54 30.64"/></svg>