<?xml version="1.0" encoding="utf-8"?>
<!-- Generator: Adobe Illustrator 24.1.2, SVG Export Plug-In . SVG Version: 6.00 Build 0)  -->
<svg version="1.1" id="Layer_1" xmlns="http://www.w3.org/2000/svg" xmlns:xlink="http://www.w3.org/1999/xlink" x="0px" y="0px"
	 viewBox="0 0 720 340" style="enable-background:new 0 0 720 340;" xml:space="preserve">
<style type="text/css">
	.st0{fill:#FFFFFF;}
</style>
<g>
	<g>
		<circle class="st0" cx="123.31" cy="100.57" r="12.12"/>
		<g>
			<path class="st0" d="M141.79,120.78c1.69,1.65,2.74,3.95,2.74,6.5c0,2.6-1.13,5.06-3.03,6.77v75.07
				c0,10.03-8.16,18.19-18.19,18.19c-10.03,0-18.19-8.16-18.19-18.19v-75.07c-1.9-1.71-3.03-4.17-3.03-6.77
				c0-2.54,1.05-4.85,2.74-6.5c-27.84,8.01-48.21,33.67-48.21,64.09c0,36.83,29.86,66.68,66.68,66.68S190,221.7,190,184.87
				C190,154.45,169.63,128.79,141.79,120.78z"/>
		</g>
		<path class="st0" d="M131.67,120.78h-16.71c-2.08,0-3.77,0.82-3.77,1.83v0c0,1.01,1.69,1.83,3.77,1.83h16.71
			c2.08,0,3.77-0.82,3.77-1.83v0C135.44,121.6,133.75,120.78,131.67,120.78z"/>
		<path class="st0" d="M134.44,137.35c-1.89,4.36-6.27,7.39-11.34,7.3c-6.61-0.11-11.91,5.51-11.91,12.13l0,52.34
			c0,6.7,5.43,12.12,12.12,12.12h0c6.7,0,12.12-5.43,12.12-12.12v-71.59C135.44,136.95,134.67,136.82,134.44,137.35z M117.25,175.78
			c-1.67,0-3.03-1.36-3.03-3.03s1.36-3.03,3.03-3.03c1.67,0,3.03,1.36,3.03,3.03S118.93,175.78,117.25,175.78z M121.8,184.87
			c-0.84,0-1.52-0.68-1.52-1.52c0-0.84,0.68-1.52,1.52-1.52c0.84,0,1.52,0.68,1.52,1.52C123.31,184.19,122.64,184.87,121.8,184.87z
			 M126.34,163.65c-3.35,0-6.06-2.71-6.06-6.06c0-3.35,2.71-6.06,6.06-6.06s6.06,2.71,6.06,6.06
			C132.41,160.94,129.69,163.65,126.34,163.65z"/>
	</g>
	<g>
		<path class="st0" d="M257.22,162.25c3.07,4.1,4.6,9.34,4.6,15.72c0,6.91-1.75,12.66-5.26,17.23c-4.12,5.38-9.99,8.07-17.61,8.07
			c-7.12,0-12.72-2.35-16.79-7.06c-3.63-4.54-5.45-10.27-5.45-17.2c0-6.26,1.55-11.62,4.66-16.07c3.99-5.71,9.89-8.57,17.71-8.57
			C247.24,154.37,253.29,157,257.22,162.25z M251.69,191.75c2.47-3.96,3.7-8.52,3.7-13.67c0-5.44-1.42-9.83-4.27-13.15
			c-2.85-3.32-6.74-4.98-11.67-4.98c-4.79,0-8.7,1.65-11.72,4.94c-3.02,3.29-4.54,8.14-4.54,14.55c0,5.13,1.3,9.45,3.89,12.98
			c2.59,3.52,6.8,5.28,12.62,5.28C245.23,197.69,249.22,195.71,251.69,191.75z"/>
		<path class="st0" d="M267.74,168.33h5.55v4.47c1.14-1.53,2.38-2.72,3.73-3.56c1.92-1.26,4.17-1.89,6.76-1.89
			c3.83,0,7.09,1.46,9.76,4.39c2.67,2.93,4.01,7.12,4.01,12.56c0,7.35-1.93,12.6-5.79,15.75c-2.45,2-5.29,2.99-8.54,2.99
			c-2.55,0-4.69-0.56-6.42-1.67c-1.01-0.63-2.14-1.71-3.38-3.25v17.23h-5.67V168.33z M289.07,194.78c1.76-2.22,2.64-5.53,2.64-9.94
			c0-2.69-0.39-5-1.17-6.93c-1.48-3.72-4.17-5.58-8.09-5.58c-3.94,0-6.64,1.96-8.09,5.89c-0.78,2.1-1.17,4.77-1.17,8
			c0,2.6,0.39,4.82,1.17,6.65c1.47,3.49,4.17,5.23,8.09,5.23C285.11,198.1,287.31,197,289.07,194.78z"/>
		<path class="st0" d="M325.9,169.1c2.23,1.12,3.94,2.58,5.1,4.36c1.13,1.7,1.88,3.69,2.25,5.96c0.33,1.55,0.5,4.03,0.5,7.44h-24.54
			c0.1,3.43,0.91,6.19,2.41,8.26s3.82,3.11,6.97,3.11c2.94,0,5.28-0.98,7.03-2.94c0.98-1.14,1.67-2.46,2.08-3.96h5.58
			c-0.15,1.24-0.64,2.62-1.46,4.14c-0.83,1.52-1.76,2.77-2.78,3.73c-1.71,1.68-3.83,2.81-6.35,3.4c-1.36,0.34-2.89,0.5-4.6,0.5
			c-4.17,0-7.71-1.53-10.61-4.58c-2.9-3.06-4.35-7.34-4.35-12.84c0-5.42,1.46-9.82,4.38-13.2c2.92-3.38,6.74-5.07,11.46-5.07
			C321.36,167.42,323.67,167.98,325.9,169.1z M327.94,182.35c-0.23-2.46-0.76-4.42-1.59-5.89c-1.54-2.73-4.11-4.1-7.72-4.1
			c-2.58,0-4.75,0.94-6.5,2.82s-2.68,4.27-2.78,7.17H327.94z"/>
		<path class="st0" d="M340.3,168.17h5.39v4.79c1.6-1.97,3.29-3.39,5.07-4.25s3.77-1.29,5.95-1.29c4.79,0,8.02,1.67,9.7,5.01
			c0.92,1.83,1.39,4.44,1.39,7.84v21.64h-5.77v-21.27c0-2.06-0.3-3.72-0.91-4.98c-1.01-2.1-2.84-3.15-5.48-3.15
			c-1.34,0-2.45,0.14-3.31,0.41c-1.55,0.46-2.92,1.39-4.1,2.77c-0.94,1.11-1.56,2.26-1.84,3.45c-0.28,1.19-0.43,2.88-0.43,5.09
			v17.67h-5.67V168.17z"/>
		<path class="st0" d="M374.81,155.63h6.33v46.28h-6.33V155.63z"/>
		<path class="st0" d="M387.98,168.17h5.39v4.79c1.6-1.97,3.29-3.39,5.07-4.25s3.77-1.29,5.95-1.29c4.79,0,8.02,1.67,9.7,5.01
			c0.92,1.83,1.39,4.44,1.39,7.84v21.64h-5.77v-21.27c0-2.06-0.3-3.72-0.91-4.98c-1.01-2.1-2.84-3.15-5.48-3.15
			c-1.34,0-2.45,0.14-3.31,0.41c-1.55,0.46-2.92,1.39-4.1,2.77c-0.94,1.11-1.56,2.26-1.84,3.45c-0.28,1.19-0.43,2.88-0.43,5.09
			v17.67h-5.67V168.17z"/>
		<path class="st0" d="M426.52,157.87c1.32-1.93,3.88-2.9,7.66-2.9c0.36,0,0.72,0.01,1.1,0.03s0.81,0.05,1.29,0.09v5.17
			c-0.59-0.04-1.02-0.07-1.29-0.08s-0.52-0.02-0.75-0.02c-1.74,0-2.78,0.45-3.12,1.34c-0.34,0.89-0.51,3.17-0.51,6.82h5.67v4.47
			h-5.67v29.11h-5.61V172.8h-4.69v-4.47h4.69v-5.29C425.37,160.68,425.78,158.96,426.52,157.87z"/>
		<path class="st0" d="M442.6,168.17h5.39V174c0.44-1.13,1.52-2.52,3.25-4.14c1.72-1.63,3.71-2.44,5.95-2.44
			c0.1,0,0.28,0.01,0.54,0.03c0.25,0.02,0.68,0.06,1.29,0.13v5.99c-0.34-0.06-0.65-0.1-0.93-0.13c-0.28-0.02-0.59-0.03-0.93-0.03
			c-2.86,0-5.05,0.92-6.58,2.76s-2.3,3.95-2.3,6.35v19.41h-5.67V168.17z"/>
		<path class="st0" d="M482.02,181.49c1.3-0.17,2.17-0.71,2.62-1.63c0.25-0.51,0.38-1.23,0.38-2.18c0-1.94-0.69-3.35-2.06-4.22
			c-1.37-0.87-3.34-1.31-5.89-1.31c-2.96,0-5.05,0.8-6.29,2.41c-0.69,0.89-1.14,2.21-1.35,3.96h-5.29c0.11-4.17,1.45-7.07,4.04-8.7
			s5.6-2.45,9.02-2.45c3.96,0,7.19,0.76,9.66,2.27c2.45,1.51,3.68,3.87,3.68,7.06v19.44c0,0.59,0.12,1.06,0.36,1.42
			s0.75,0.53,1.53,0.53c0.25,0,0.54-0.02,0.85-0.05s0.65-0.08,1.01-0.14v4.19c-0.88,0.25-1.55,0.41-2.02,0.47
			c-0.46,0.06-1.09,0.09-1.89,0.09c-1.95,0-3.37-0.69-4.25-2.08c-0.46-0.73-0.79-1.77-0.98-3.12c-1.16,1.51-2.81,2.83-4.98,3.94
			c-2.16,1.11-4.55,1.67-7.15,1.67c-3.13,0-5.69-0.95-7.67-2.85c-1.99-1.9-2.98-4.27-2.98-7.13c0-3.12,0.98-5.55,2.93-7.27
			s4.52-2.78,7.69-3.18L482.02,181.49z M470.07,196.81c1.2,0.94,2.62,1.42,4.25,1.42c2,0,3.93-0.46,5.8-1.38
			c3.15-1.53,4.73-4.04,4.73-7.52v-4.56c-0.69,0.44-1.58,0.81-2.67,1.11c-1.09,0.3-2.16,0.51-3.21,0.63l-3.43,0.44
			c-2.05,0.27-3.6,0.7-4.63,1.29c-1.75,0.99-2.63,2.56-2.63,4.71C468.28,194.58,468.88,195.87,470.07,196.81z"/>
		<path class="st0" d="M519.14,155.48h9.7v38.09h23.19v8.35h-32.89V155.48z"/>
		<path class="st0" d="M572.4,181.03c1.67-0.21,2.87-0.47,3.59-0.79c1.29-0.55,1.94-1.4,1.94-2.55c0-1.41-0.5-2.38-1.49-2.92
			c-0.99-0.54-2.44-0.8-4.36-0.8c-2.15,0-3.67,0.52-4.57,1.58c-0.64,0.78-1.06,1.83-1.28,3.15h-8.66c0.19-3,1.03-5.47,2.53-7.4
			c2.38-3.02,6.48-4.54,12.28-4.54c3.78,0,7.13,0.75,10.06,2.24c2.93,1.49,4.4,4.31,4.4,8.44v15.75c0,1.09,0.02,2.42,0.06,3.97
			c0.06,1.18,0.24,1.97,0.54,2.39c0.29,0.42,0.73,0.77,1.32,1.04v1.32H579c-0.27-0.69-0.46-1.34-0.57-1.95
			c-0.11-0.61-0.19-1.3-0.25-2.08c-1.25,1.34-2.68,2.49-4.31,3.43c-1.94,1.11-4.14,1.67-6.59,1.67c-3.13,0-5.71-0.89-7.75-2.66
			s-3.06-4.29-3.06-7.55c0-4.22,1.64-7.28,4.92-9.17c1.8-1.03,4.44-1.76,7.94-2.21L572.4,181.03z M577.89,185.22
			c-0.58,0.36-1.16,0.65-1.74,0.87c-0.59,0.22-1.39,0.43-2.41,0.62l-2.04,0.38c-1.92,0.34-3.29,0.75-4.13,1.23
			c-1.42,0.82-2.12,2.09-2.12,3.81c0,1.53,0.43,2.64,1.3,3.32c0.86,0.68,1.91,1.02,3.15,1.02c1.96,0,3.77-0.57,5.42-1.7
			c1.65-1.13,2.51-3.2,2.58-6.21V185.22z"/>
		<path class="st0" d="M624.01,171.7c2.57,3.26,3.85,7.46,3.85,12.6c0,5.33-1.27,9.76-3.8,13.26s-6.07,5.26-10.61,5.26
			c-2.85,0-5.14-0.57-6.87-1.7c-1.03-0.67-2.15-1.85-3.36-3.53v4.32h-8.85v-46.38h8.98v16.51c1.14-1.6,2.4-2.81,3.77-3.66
			c1.63-1.05,3.7-1.58,6.21-1.58C617.88,166.82,621.44,168.45,624.01,171.7z M616.5,192.62c1.29-1.87,1.94-4.33,1.94-7.37
			c0-2.44-0.32-4.45-0.95-6.05c-1.21-3.02-3.43-4.54-6.67-4.54c-3.28,0-5.54,1.48-6.77,4.44c-0.64,1.58-0.95,3.61-0.95,6.11
			c0,2.94,0.66,5.38,1.97,7.31c1.31,1.93,3.31,2.9,6,2.9C613.4,195.43,615.21,194.49,616.5,192.62z"/>
		<path class="st0" d="M641.06,190.95c0.19,1.6,0.6,2.73,1.23,3.4c1.12,1.2,3.19,1.8,6.21,1.8c1.77,0,3.18-0.26,4.23-0.79
			c1.04-0.53,1.57-1.31,1.57-2.36c0-1.01-0.42-1.77-1.26-2.3c-0.84-0.52-3.97-1.43-9.39-2.71c-3.9-0.97-6.65-2.17-8.25-3.62
			c-1.6-1.43-2.39-3.49-2.39-6.17c0-3.17,1.25-5.9,3.74-8.18s6-3.42,10.53-3.42c4.29,0,7.79,0.86,10.5,2.57
			c2.71,1.71,4.26,4.67,4.66,8.87h-8.98c-0.13-1.15-0.45-2.07-0.98-2.74c-0.99-1.22-2.68-1.83-5.05-1.83c-1.96,0-3.35,0.3-4.19,0.91
			s-1.25,1.32-1.25,2.14c0,1.03,0.44,1.78,1.33,2.24c0.88,0.48,4.01,1.31,9.38,2.49c3.58,0.84,6.26,2.11,8.04,3.81
			c1.76,1.72,2.65,3.88,2.65,6.46c0,3.4-1.27,6.18-3.8,8.33s-6.46,3.23-11.76,3.23c-5.41,0-9.4-1.14-11.98-3.42
			c-2.58-2.28-3.87-5.18-3.87-8.71H641.06z"/>
	</g>
</g>
</svg>
