<?xml version="1.0" encoding="UTF-8"?>
<svg width="56px" height="56px" viewBox="0 0 56 56" version="1.1" xmlns="http://www.w3.org/2000/svg" xmlns:xlink="http://www.w3.org/1999/xlink">
    <!-- Generator: Sketch 52.6 (67491) - http://www.bohemiancoding.com/sketch -->
    <title>code icon@2x</title>
    <desc></desc>
    <g id="Page-1" stroke="none" stroke-width="1" fill="none" fill-rule="evenodd">
        <g id="openinfra-labs-landing" transform="translate(-894.000000, -421.000000)" fill="#D33D3C">
            <g id="code-icon" transform="translate(894.000000, 421.000000)">
                <path d="M5.25,50.75 L50.75,50.75 L50.75,12.25 L5.25,12.25 L5.25,50.75 Z M4.375,56 C1.962625,56 0,54.037375 0,51.625 L0,9.625 C0,8.17775 1.17775,7 2.625,7 L53.375,7 C54.82225,7 56,8.17775 56,9.625 L56,51.625 C56,54.037375 54.037375,56 51.625,56 L4.375,56 Z" id="Fill-1"></path>
                <path d="M5.36507937,51.6363636 L51.6349206,51.6363636 L51.6349206,12.3636364 L5.36507937,12.3636364 L5.36507937,51.6363636 Z M4.92857143,56 C2.76261905,56 1,54.2379636 1,52.0727273 L1,10.1818182 C1,8.9792 1.97952381,8 3.18253968,8 L53.8174603,8 C55.0204762,8 56,8.9792 56,10.1818182 L56,52.0727273 C56,54.2379636 54.237381,56 52.0714286,56 L4.92857143,56 Z" id="Fill-3"></path>
                <path d="M4.60655738,51.9622642 C4.60655738,52.2009434 4.80118033,52.3962264 5.04098361,52.3962264 L51.9590164,52.3962264 C52.1988197,52.3962264 52.3934426,52.2009434 52.3934426,51.9622642 L52.3934426,11.6037736 L4.60655738,11.6037736 L4.60655738,51.9622642 Z M5.04098361,55 C3.36409836,55 2,53.6373585 2,51.9622642 L2,10.3018868 C2,9.58411321 2.5847377,9 3.30327869,9 L53.6967213,9 C54.4152623,9 55,9.58411321 55,10.3018868 L55,51.9622642 C55,53.6373585 53.6359016,55 51.9590164,55 L5.04098361,55 Z" id="Fill-4"></path>
                <path d="M52.35,55 L4.65,55 C3.18896667,55 2,53.8093077 2,52.3461538 L2,9.88461538 C2,9.39630769 2.39573333,9 2.88333333,9 L54.1166667,9 C54.6042667,9 55,9.39630769 55,9.88461538 L55,52.3461538 C55,53.8093077 53.8110333,55 52.35,55 Z M3.76666667,10.7692308 L3.76666667,52.3461538 C3.76666667,52.8335769 4.16328333,53.2307692 4.65,53.2307692 L52.35,53.2307692 C52.8367167,53.2307692 53.2333333,52.8335769 53.2333333,52.3461538 L53.2333333,10.7692308 L3.76666667,10.7692308 Z" id="Fill-5"></path>
                <path d="M5.25,6.85714286 L50.75,6.85714286 L50.75,5.14285714 L5.25,5.14285714 L5.25,6.85714286 Z M2.625,12 C1.17775,12 0,10.8462857 0,9.42857143 L0,4.28571429 C0,1.92257143 1.962625,0 4.375,0 L51.625,0 C54.037375,0 56,1.92257143 56,4.28571429 L56,9.42857143 C56,10.8462857 54.82225,12 53.375,12 L2.625,12 Z" id="Fill-6"></path>
                <path d="M5.36507937,7.76923077 L51.6349206,7.76923077 L51.6349206,5.23076923 L5.36507937,5.23076923 L5.36507937,7.76923077 Z M3.18253968,12 C1.97952381,12 1,11.0506154 1,9.88461538 L1,4.80769231 C1,2.70838462 2.76261905,1 4.92857143,1 L52.0714286,1 C54.237381,1 56,2.70838462 56,4.80769231 L56,9.88461538 C56,11.0506154 55.0204762,12 53.8174603,12 L3.18253968,12 Z" id="Fill-7"></path>
                <path d="M52.3934426,8.27272727 L52.3934426,4.18181818 C52.3934426,3.93090909 52.1988197,3.72727273 51.9590164,3.72727273 L5.04098361,3.72727273 C4.80118033,3.72727273 4.60655738,3.93090909 4.60655738,4.18181818 L4.60655738,8.27272727 L52.3934426,8.27272727 Z M3.30327869,11 C2.5847377,11 2,10.3881818 2,9.63636364 L2,4.18181818 C2,2.42727273 3.36409836,1 5.04098361,1 L51.9590164,1 C53.6359016,1 55,2.42727273 55,4.18181818 L55,9.63636364 C55,10.3881818 54.4152623,11 53.6967213,11 L3.30327869,11 Z" id="Fill-8"></path>
                <path d="M54.1166667,11 L2.88333333,11 C2.39573333,11 2,10.5968 2,10.1 L2,4.7 C2,3.2114 3.18896667,2 4.65,2 L52.35,2 C53.8110333,2 55,3.2114 55,4.7 L55,10.1 C55,10.5968 54.6042667,11 54.1166667,11 Z M3.76666667,9.2 L53.2333333,9.2 L53.2333333,4.7 C53.2333333,4.2041 52.8367167,3.8 52.35,3.8 L4.65,3.8 C4.16328333,3.8 3.76666667,4.2041 3.76666667,4.7 L3.76666667,9.2 Z" id="Fill-9"></path>
                <path d="M8.5,27 C7.12166667,27 6,25.8783333 6,24.5 C6,23.1216667 7.12166667,22 8.5,22 C9.87833333,22 11,23.1216667 11,24.5 C11,25.8783333 9.87833333,27 8.5,27" id="Fill-10"></path>
                <path d="M9,24.6 C8.7792,24.6 8.6,24.7792 8.6,25 C8.6,25.2208 8.7792,25.4 9,25.4 C9.2208,25.4 9.4,25.2208 9.4,25 C9.4,24.7792 9.2208,24.6 9,24.6 M9,27 C7.8976,27 7,26.1024 7,25 C7,23.8976 7.8976,23 9,23 C10.1024,23 11,23.8976 11,25 C11,26.1024 10.1024,27 9,27" id="Fill-11"></path>
                <path d="M8.5,24 C8.224,24 8,24.224 8,24.5 C8,24.776 8.224,25 8.5,25 C8.776,25 9,24.776 9,24.5 C9,24.224 8.776,24 8.5,24 M8.5,26 C7.673,26 7,25.327 7,24.5 C7,23.673 7.673,23 8.5,23 C9.327,23 10,23.673 10,24.5 C10,25.327 9.327,26 8.5,26" id="Fill-12"></path>
                <path d="M10,25 C10,25.552 9.552,26 9,26 C8.448,26 8,25.552 8,25 C8,24.448 8.448,24 9,24 C9.552,24 10,24.448 10,25" id="Fill-13"></path>
                <path d="M14.7266527,28 C13.9982723,28 13.3135401,27.7269829 12.7979449,27.2308269 C11.7340184,26.207888 11.7340184,24.5417839 12.7979449,23.5188449 L15.4159316,20.9995625 L12.7979449,18.48028 C11.7340184,17.4573411 11.7340184,15.791237 12.7979449,14.768298 C13.3126307,14.2730171 13.9973629,14 14.7266527,14 C15.4559425,14 16.1406747,14.2730171 16.6553606,14.768298 L21.2020551,19.1435715 C22.2659816,20.1665104 22.2659816,21.8326145 21.2020551,22.8555535 L16.6553606,27.2308269 C16.1397654,27.7269829 15.4550332,28 14.7266527,28" id="Fill-14"></path>
                <path d="M15.2493248,28 C14.6488447,28 14.083475,27.7746441 13.6576473,27.3655366 C12.7807842,26.520452 12.7807842,25.1457812 13.6576473,24.3006967 L16.5682205,21.4993499 L13.6576473,18.6980031 C12.7807842,17.8529186 12.7807842,16.4782478 13.6576473,15.6331633 C14.5354106,14.7889456 15.963239,14.7889456 16.8410023,15.6331633 L21.3423527,19.96693 C22.2192158,20.8120145 22.2192158,22.1866853 21.3423527,23.0317698 L16.8410023,27.3655366 C16.4151746,27.7746441 15.8498049,28 15.2493248,28" id="Fill-15"></path>
                <path d="M15.3123633,16.8459586 C15.2003563,16.8459586 15.0883493,16.8865747 15.0025939,16.9694994 C14.8328333,17.1345026 14.8328333,17.4027385 15.0025939,17.5677417 L19.0689731,21.4998942 L15.0025939,25.4312006 C14.8328333,25.5962038 14.8328333,25.8644397 15.0025939,26.0294429 C15.1688543,26.189369 15.4558722,26.189369 15.6221326,26.0294429 L19.9974061,21.7985923 C20.1671667,21.6335891 20.1671667,21.3653532 19.9974061,21.20035 L15.6221326,16.9694994 C15.5363773,16.8865747 15.4243703,16.8459586 15.3123633,16.8459586 M15.3123633,27 C14.9623414,27 14.6324458,26.8671513 14.3839302,26.6276851 C13.8720233,26.1326756 13.8720233,25.3279678 14.3839302,24.8329583 L17.8316457,21.4998942 L14.3839302,18.165984 C13.8720233,17.6709744 13.8720233,16.8662667 14.3839302,16.3712571 C14.8958372,15.8762476 15.7288893,15.8762476 16.2407963,16.3712571 L20.6160698,20.6021077 C21.1279767,21.0971173 21.1279767,21.901825 20.6160698,22.3968346 L16.2407963,26.6276851 C15.9922808,26.8671513 15.6623851,27 15.3123633,27" id="Fill-16"></path>
                <path d="M14.8572959,26 C14.637883,26 14.4184701,25.9101685 14.2513392,25.7314223 C13.9162203,25.3730131 13.9162203,24.7936918 14.2513392,24.4352826 L17.9307907,20.5001146 L14.2513392,16.5649466 C13.9162203,16.2065374 13.9162203,15.6272161 14.2513392,15.2688069 C14.5864581,14.9103977 15.1281337,14.9103977 15.4632526,15.2688069 L19.7486608,19.8520447 C20.0837797,20.2104539 20.0837797,20.7897752 19.7486608,21.1481844 L15.4632526,25.7314223 C15.2961217,25.9101685 15.0767088,26 14.8572959,26" id="Fill-17"></path>
            </g>
        </g>
    </g>
</svg>