<svg width="190" height="45" viewBox="0 0 190 45" fill="none" xmlns="http://www.w3.org/2000/svg">
<g clip-path="url(#clip0_21_103)">
<path d="M61.9799 19.41C59.8758 19.41 58.3104 18.9062 57.2836 17.8986C56.2568 16.891 55.7497 15.3357 55.7623 13.2327V6.8672C55.7623 4.7412 56.2736 3.18588 57.2899 2.18873C58.3062 1.19158 59.8716 0.702412 61.9799 0.721226H65.3065C67.4337 0.721226 69.0054 1.22294 70.0091 2.22009C71.0127 3.21724 71.524 4.77882 71.524 6.89228V13.2327C71.524 15.3231 71.019 16.8785 70.0091 17.8986C69.0054 18.9083 67.4337 19.41 65.3065 19.41H61.9799ZM61.9799 17.0959H65.3065C66.1003 17.1258 66.8927 17.0067 67.642 16.7447C67.9116 16.6352 68.1565 16.4735 68.3625 16.2689C68.5684 16.0643 68.7312 15.821 68.8413 15.5531C69.1051 14.8086 69.225 14.0214 69.1948 13.2327V6.89228C69.2247 6.10977 69.1048 5.32872 68.8413 4.59068C68.7313 4.32203 68.5686 4.07779 68.3627 3.87215C68.1568 3.66652 67.9118 3.5036 67.642 3.39285C66.8941 3.12462 66.1009 3.00321 65.3065 3.03537H61.9799C61.1932 2.99391 60.406 3.10686 59.6633 3.36776C59.3909 3.47195 59.1431 3.63105 58.9356 3.83504C58.7281 4.03904 58.5654 4.28351 58.4577 4.55305C58.1846 5.29326 58.0602 6.07946 58.0916 6.8672V13.2327C58.0614 14.0214 58.1813 14.8086 58.4451 15.5531C58.5556 15.8217 58.7193 16.0656 58.9263 16.2702C59.1334 16.4749 59.3797 16.6362 59.6507 16.7447C60.3975 17.008 61.1881 17.1272 61.9799 17.0959Z" fill="black"/>
<path d="M77.5206 24.9225C77.3625 24.9455 77.2011 24.9316 77.0493 24.8818C76.8975 24.832 76.7595 24.7478 76.6462 24.6358C76.5328 24.5239 76.4473 24.3872 76.3964 24.2366C76.3455 24.0861 76.3306 23.9258 76.3529 23.7686V6.59121C76.3411 6.4321 76.3624 6.27228 76.4156 6.12174C76.4688 5.9712 76.5527 5.83318 76.6619 5.71629C76.7712 5.59941 76.9036 5.50618 77.0508 5.44242C77.198 5.37867 77.3569 5.34576 77.5175 5.34576C77.6781 5.34576 77.8369 5.37867 77.9841 5.44242C78.1313 5.50618 78.2637 5.59941 78.373 5.71629C78.4823 5.83318 78.5662 5.9712 78.6193 6.12174C78.6725 6.27228 78.6939 6.4321 78.6821 6.59121V6.93614C79.2053 6.42479 79.8404 6.04058 80.5379 5.81355C81.3348 5.54738 82.1716 5.41802 83.0123 5.43101H84.0664C85.9159 5.43101 87.2857 5.87627 88.1694 6.75427C89.0531 7.63226 89.5076 8.99943 89.5076 10.837V14.0103C89.5076 15.8415 89.0615 17.2003 88.1694 18.0867C87.2773 18.9731 85.9096 19.4162 84.0664 19.4162H78.6821V23.7749C78.7044 23.9313 78.6897 24.0907 78.6391 24.2405C78.5885 24.3903 78.5035 24.5263 78.3907 24.6378C78.278 24.7492 78.1406 24.8329 77.9896 24.8824C77.8385 24.9318 77.678 24.9455 77.5206 24.9225ZM78.6821 17.0958H84.0664C85.2784 17.0958 86.099 16.8763 86.5282 16.4687C86.9574 16.061 87.1594 15.2144 87.1594 14.0228V10.8558C87.1594 9.65166 86.949 8.83638 86.5282 8.40992C86.1074 7.98347 85.2868 7.77442 84.0664 7.78278H83.0123C81.9971 7.76289 80.9852 7.90258 80.014 8.19669C79.1744 8.46636 78.7515 8.90536 78.6821 9.50114V17.0958Z" fill="black"/>
<path d="M95.9966 13.3832V14.0103C95.9966 15.1956 96.2175 15.9984 96.6278 16.4311C97.0381 16.8638 97.8902 17.0582 99.0833 17.0582H101.362C102.071 17.0907 102.78 17.0016 103.458 16.7948C103.669 16.7202 103.861 16.5982 104.017 16.4383C104.174 16.2785 104.291 16.085 104.36 15.8729C104.433 15.5751 104.579 15.2995 104.783 15.0702C104.895 14.9711 105.026 14.8956 105.168 14.8482C105.31 14.8008 105.461 14.7824 105.61 14.7942C105.771 14.7829 105.932 14.8043 106.084 14.8571C106.236 14.91 106.375 14.9932 106.494 15.1015C106.599 15.2191 106.672 15.3615 106.707 15.5152C106.741 15.6689 106.735 15.8288 106.69 15.9795C106.619 16.4971 106.436 16.9934 106.154 17.434C105.872 17.8747 105.497 18.2493 105.055 18.532C103.927 19.1493 102.648 19.4404 101.362 19.3724H99.1022C97.2653 19.3724 95.8956 18.9334 95.0056 18.0491C94.1155 17.1648 93.6674 15.8165 93.6674 13.9978V10.7994C93.6674 8.91794 94.1155 7.56332 95.0056 6.68533C95.8956 5.80733 97.2653 5.3746 99.1022 5.39341H101.381C103.228 5.39341 104.596 5.83241 105.484 6.71041C106.372 7.5884 106.818 8.95139 106.822 10.7994V12.1791C106.844 12.3363 106.829 12.4966 106.779 12.6471C106.728 12.7976 106.642 12.9343 106.529 13.0463C106.415 13.1583 106.277 13.2425 106.126 13.2923C105.974 13.3421 105.812 13.356 105.654 13.333L95.9966 13.3832ZM99.1022 7.73892C97.9029 7.73892 97.0823 7.92706 96.6467 8.36606C96.2112 8.80506 96.0155 9.62033 96.0155 10.8307V11.0502H104.505V10.8307C104.505 9.62661 104.295 8.81133 103.874 8.38487C103.453 7.95842 102.633 7.74937 101.412 7.75773L99.1022 7.73892Z" fill="black"/>
<path d="M112.812 19.41C112.654 19.4332 112.492 19.4192 112.339 19.3691C112.187 19.319 112.049 19.2342 111.935 19.1215C111.822 19.0087 111.736 18.8712 111.686 18.7198C111.635 18.5685 111.621 18.4075 111.645 18.2498V6.59123C111.645 6.28353 111.768 5.98842 111.987 5.77084C112.206 5.55326 112.503 5.43103 112.812 5.43103C113.122 5.43103 113.419 5.55326 113.638 5.77084C113.857 5.98842 113.98 6.28353 113.98 6.59123V7.04278C114.956 5.97246 116.4 5.43521 118.31 5.43103H119.08C120.93 5.43103 122.3 5.87629 123.19 6.75429C124.08 7.63228 124.522 8.99946 124.522 10.837V18.2498C124.533 18.4089 124.512 18.5687 124.459 18.7192C124.406 18.8698 124.322 19.0078 124.213 19.1247C124.103 19.2416 123.971 19.3348 123.824 19.3986C123.676 19.4623 123.518 19.4952 123.357 19.4952C123.196 19.4952 123.038 19.4623 122.89 19.3986C122.743 19.3348 122.611 19.2416 122.501 19.1247C122.392 19.0078 122.308 18.8698 122.255 18.7192C122.202 18.5687 122.181 18.4089 122.192 18.2498V10.837C122.192 9.63287 121.971 8.81758 121.53 8.39112C121.094 7.96467 120.267 7.76398 119.08 7.76398H118.31C117.329 7.7467 116.351 7.8735 115.407 8.14027C114.586 8.39113 114.106 8.76741 113.98 9.33183V18.2623C114.001 18.4191 113.986 18.5786 113.934 18.7283C113.883 18.8781 113.797 19.0139 113.684 19.1251C113.571 19.2364 113.433 19.32 113.282 19.3694C113.131 19.4189 112.97 19.4327 112.812 19.41Z" fill="black"/>
<path d="M130.903 19.41C130.583 19.4355 130.265 19.334 130.02 19.1278C129.816 18.8816 129.715 18.5677 129.736 18.2498V1.9065C129.709 1.58603 129.811 1.26811 130.02 1.02223C130.268 0.822322 130.584 0.723704 130.903 0.746297C131.063 0.717281 131.228 0.727215 131.383 0.775254C131.538 0.823294 131.679 0.907998 131.793 1.0221C131.908 1.1362 131.994 1.27628 132.042 1.43033C132.09 1.58437 132.1 1.74777 132.071 1.9065V18.2498C132.094 18.5668 131.995 18.8806 131.793 19.1278C131.671 19.2313 131.53 19.3096 131.377 19.358C131.224 19.4065 131.063 19.4241 130.903 19.41Z" fill="black"/>
<path d="M138.73 19.41C138.572 19.4332 138.41 19.4192 138.257 19.3691C138.105 19.319 137.967 19.2342 137.853 19.1215C137.74 19.0087 137.654 18.8712 137.604 18.7198C137.553 18.5685 137.539 18.4075 137.563 18.2497V6.59121C137.551 6.4321 137.572 6.27228 137.625 6.12174C137.679 5.9712 137.763 5.83318 137.872 5.71629C137.981 5.59941 138.113 5.50618 138.261 5.44242C138.408 5.37867 138.567 5.34576 138.727 5.34576C138.888 5.34576 139.047 5.37867 139.194 5.44242C139.341 5.50618 139.474 5.59941 139.583 5.71629C139.692 5.83318 139.776 5.9712 139.829 6.12174C139.882 6.27228 139.904 6.4321 139.892 6.59121V7.04275C140.877 5.97034 142.316 5.43101 144.222 5.43101H144.999C146.848 5.43101 148.218 5.87627 149.108 6.75427C149.998 7.63226 150.44 8.99943 150.44 10.837V18.2497C150.44 18.5575 150.317 18.8526 150.098 19.0701C149.879 19.2877 149.582 19.41 149.272 19.41C148.962 19.41 148.665 19.2877 148.446 19.0701C148.227 18.8526 148.104 18.5575 148.104 18.2497V10.837C148.104 9.63284 147.89 8.81756 147.473 8.3911C147.056 7.96465 146.21 7.76396 145.024 7.76396H144.247C143.268 7.74619 142.292 7.87301 141.35 8.14025C140.523 8.39111 140.05 8.76739 139.917 9.33181V18.2623C139.939 18.4209 139.923 18.5824 139.871 18.7338C139.818 18.8851 139.731 19.0222 139.616 19.1338C139.5 19.2455 139.36 19.3287 139.206 19.3766C139.052 19.4246 138.889 19.436 138.73 19.41Z" fill="black"/>
<path d="M157.345 19.41C157.187 19.4322 157.026 19.4173 156.874 19.3668C156.723 19.3162 156.585 19.2312 156.472 19.1186C156.36 19.006 156.275 18.8689 156.225 18.7181C156.175 18.5673 156.161 18.4069 156.184 18.2498V7.73894H155.155C154.845 7.73894 154.548 7.6167 154.329 7.39912C154.11 7.18154 153.987 6.88643 153.987 6.57873C153.987 6.27102 154.11 5.97592 154.329 5.75834C154.548 5.54076 154.845 5.41852 155.155 5.41852H156.184V5.31191C156.184 3.49948 156.619 2.17621 157.503 1.29194C158.387 0.407673 159.725 -0.0125122 161.537 -0.0125122C162.206 -0.0125122 162.534 0.376319 162.534 1.1477C162.534 1.91908 162.206 2.3079 161.537 2.3079C160.369 2.3079 159.574 2.50859 159.151 2.93505C158.728 3.3615 158.519 4.14542 158.519 5.32445V5.43107H161.379C161.689 5.43107 161.986 5.5533 162.205 5.77088C162.424 5.98846 162.547 6.28357 162.547 6.59127C162.547 6.89898 162.424 7.19409 162.205 7.41167C161.986 7.62925 161.689 7.75149 161.379 7.75149H158.519V18.2498C158.543 18.4081 158.529 18.5698 158.478 18.7217C158.427 18.8736 158.341 19.0115 158.227 19.1244C158.113 19.2373 157.974 19.3219 157.82 19.3716C157.667 19.4212 157.505 19.4343 157.345 19.41Z" fill="black"/>
<path d="M167.274 19.41C167.116 19.4332 166.954 19.4192 166.801 19.3691C166.649 19.319 166.511 19.2342 166.397 19.1215C166.284 19.0087 166.198 18.8712 166.148 18.7198C166.097 18.5685 166.083 18.4075 166.107 18.2497V6.59121C166.095 6.4321 166.116 6.27228 166.169 6.12174C166.223 5.9712 166.306 5.83318 166.416 5.71629C166.525 5.59941 166.657 5.50618 166.805 5.44242C166.952 5.37867 167.111 5.34576 167.271 5.34576C167.432 5.34576 167.591 5.37867 167.738 5.44242C167.885 5.50618 168.018 5.59941 168.127 5.71629C168.236 5.83318 168.32 5.9712 168.373 6.12174C168.426 6.27228 168.448 6.4321 168.436 6.59121V7.66363C168.976 6.93817 169.696 6.36357 170.525 5.99543C171.444 5.60414 172.436 5.41173 173.435 5.43101C173.745 5.43101 174.042 5.55324 174.261 5.77082C174.48 5.9884 174.603 6.28351 174.603 6.59121C174.603 6.89892 174.48 7.19403 174.261 7.41161C174.042 7.62919 173.745 7.75143 173.435 7.75143C172.151 7.66784 170.872 7.97405 169.768 8.62942C169.374 8.88363 169.047 9.22831 168.815 9.63435C168.583 10.0404 168.453 10.4959 168.436 10.9624V18.2497C168.459 18.4069 168.445 18.5672 168.395 18.718C168.345 18.8688 168.26 19.006 168.147 19.1186C168.035 19.2312 167.897 19.3161 167.746 19.3667C167.594 19.4173 167.433 19.4321 167.274 19.41Z" fill="black"/>
<path d="M181.161 19.41C179.609 19.41 178.447 19.0337 177.69 18.2811C176.932 17.5286 176.553 16.3997 176.553 14.8319C176.553 13.264 176.932 12.1414 177.683 11.3889C178.434 10.6363 179.577 10.26 181.161 10.26H187.032C187.049 9.89516 186.991 9.53065 186.859 9.18953C186.728 8.84841 186.526 8.53812 186.268 8.27825C185.565 7.86288 184.747 7.67854 183.932 7.75145H182.323C181.63 7.7269 180.936 7.78798 180.259 7.93332C180.062 7.97649 179.876 8.05804 179.711 8.17323C179.547 8.28842 179.406 8.43497 179.299 8.60436C179.191 8.90468 179.016 9.17693 178.788 9.40082C178.561 9.56331 178.284 9.64104 178.005 9.62033C177.839 9.62878 177.672 9.6043 177.515 9.54833C177.358 9.49235 177.213 9.40598 177.09 9.29421C176.979 9.18244 176.902 9.04216 176.868 8.88922C176.833 8.73629 176.842 8.5768 176.894 8.42876C177.007 7.94897 177.221 7.49824 177.521 7.10598C177.821 6.71372 178.201 6.38874 178.636 6.15224C179.788 5.61122 181.057 5.36131 182.329 5.42476H183.939C185.788 5.42476 187.158 5.87003 188.048 6.74802C188.938 7.62602 189.367 8.99319 189.367 10.837V18.2498C189.379 18.4089 189.358 18.5687 189.305 18.7192C189.251 18.8698 189.167 19.0078 189.058 19.1247C188.949 19.2416 188.817 19.3348 188.669 19.3986C188.522 19.4623 188.363 19.4952 188.203 19.4952C188.042 19.4952 187.883 19.4623 187.736 19.3986C187.589 19.3348 187.456 19.2416 187.347 19.1247C187.238 19.0078 187.154 18.8698 187.101 18.7192C187.048 18.5687 187.026 18.4089 187.038 18.2498V17.6226C186.502 18.2297 185.833 18.7061 185.082 19.015C184.331 19.3238 183.519 19.4568 182.708 19.4037L181.161 19.41ZM181.161 17.0958H182.714C183.361 17.0994 184.006 17.0364 184.639 16.9077C185.203 16.8008 185.734 16.567 186.192 16.2241C186.638 15.8687 186.941 15.3656 187.044 14.8068V12.5742H181.161C180.829 12.5163 180.488 12.5314 180.163 12.6183C179.837 12.7052 179.535 12.8619 179.276 13.0774C179.018 13.2928 178.811 13.5618 178.668 13.8654C178.526 14.1691 178.452 14.5 178.452 14.835C178.452 15.17 178.526 15.5009 178.668 15.8046C178.811 16.1082 179.018 16.3772 179.276 16.5926C179.535 16.8081 179.837 16.9648 180.163 17.0517C180.488 17.1386 180.829 17.1537 181.161 17.0958Z" fill="black"/>
<path d="M56.2295 44.3138C56.1665 44.3231 56.1022 44.3177 56.0417 44.2981C55.9812 44.2785 55.9261 44.2452 55.8808 44.2008C55.8355 44.1564 55.8012 44.1021 55.7806 44.0422C55.7601 43.9824 55.7538 43.9186 55.7623 43.8559V35.145C55.7527 35.0818 55.7582 35.0173 55.7782 34.9566C55.7983 34.896 55.8324 34.8408 55.8779 34.7957C55.9233 34.7505 55.9788 34.7166 56.0399 34.6967C56.101 34.6767 56.1659 34.6713 56.2295 34.6809H61.6012C61.6642 34.6739 61.728 34.6811 61.7879 34.702C61.8478 34.7228 61.9021 34.7568 61.947 34.8014C61.9919 34.8459 62.026 34.9 62.047 34.9594C62.068 35.0189 62.0753 35.0823 62.0683 35.145C62.0768 35.2076 62.0705 35.2714 62.05 35.3312C62.0294 35.3911 61.9951 35.4454 61.9498 35.4898C61.9045 35.5342 61.8494 35.5675 61.7889 35.5871C61.7284 35.6067 61.6641 35.6121 61.6012 35.6028H56.6966V38.9768H59.9663C60.0902 38.9768 60.209 39.0257 60.2966 39.1127C60.3842 39.1997 60.4334 39.3178 60.4334 39.4409C60.4334 39.5639 60.3842 39.682 60.2966 39.769C60.209 39.8561 60.0902 39.905 59.9663 39.905H56.7281V43.8559C56.7381 43.9217 56.7317 43.9889 56.7095 44.0517C56.6874 44.1145 56.65 44.171 56.6009 44.2161C56.5517 44.2613 56.4921 44.2938 56.4274 44.3108C56.3626 44.3278 56.2947 44.3288 56.2295 44.3138Z" fill="black"/>
<path d="M67.743 44.3137C67.3118 44.3887 66.8687 44.3594 66.4513 44.2283C66.0338 44.0973 65.6543 43.8683 65.3447 43.5607C65.0352 43.2532 64.8047 42.8761 64.6728 42.4614C64.5409 42.0466 64.5114 41.6064 64.5869 41.178V37.8416C64.5482 37.4129 64.5958 36.9808 64.7269 36.5706C64.858 36.1604 65.0701 35.7802 65.3506 35.4522C65.678 35.1761 66.058 34.9683 66.4679 34.8412C66.8779 34.714 67.3093 34.6702 67.7367 34.7122H69.5167C69.948 34.6372 70.391 34.6665 70.8084 34.7975C71.2259 34.9286 71.6054 35.1576 71.915 35.4651C72.2245 35.7727 72.455 36.1498 72.5869 36.5645C72.7188 36.9793 72.7483 37.4195 72.6729 37.8479V41.2094C72.7483 41.6378 72.7188 42.078 72.5869 42.4927C72.455 42.9075 72.2245 43.2845 71.915 43.5921C71.6054 43.8996 71.2259 44.1286 70.8084 44.2597C70.391 44.3908 69.948 44.42 69.5167 44.3451L67.743 44.3137ZM67.743 43.3918H69.5167C69.9686 43.4119 70.4199 43.3393 70.8423 43.1786C70.9985 43.1155 71.1405 43.0219 71.2597 42.9035C71.379 42.785 71.4732 42.644 71.5366 42.4887C71.6913 42.0694 71.762 41.6242 71.745 41.178V37.8416C71.7627 37.3974 71.6919 36.9541 71.5366 36.5372C71.4739 36.3808 71.38 36.2385 71.2607 36.1189C71.1414 35.9993 70.9991 35.9048 70.8423 35.841C70.4199 35.6803 69.9686 35.6077 69.5167 35.6278H67.7367C67.29 35.608 66.8438 35.6762 66.4237 35.8285C66.2675 35.8916 66.1255 35.9851 66.0063 36.1036C65.887 36.2221 65.7929 36.3631 65.7294 36.5184C65.5688 36.9384 65.4958 37.3864 65.5148 37.8353V41.2031C65.4963 41.6499 65.5693 42.0958 65.7294 42.5138C65.7929 42.6691 65.887 42.8101 66.0063 42.9286C66.1255 43.047 66.2675 43.1406 66.4237 43.2037C66.8462 43.3541 67.295 43.4182 67.743 43.3918Z" fill="black"/>
<path d="M79.8625 44.3137C79.4313 44.3887 78.9882 44.3594 78.5708 44.2284C78.1533 44.0973 77.7738 43.8683 77.4642 43.5608C77.1547 43.2532 76.9242 42.8761 76.7923 42.4614C76.6604 42.0467 76.6309 41.6065 76.7064 41.178V35.145C76.7019 35.0824 76.7102 35.0196 76.7308 34.9603C76.7514 34.901 76.7839 34.8465 76.8263 34.8C76.8721 34.7584 76.9259 34.7263 76.9845 34.7059C77.0431 34.6854 77.1052 34.6769 77.1672 34.6809C77.2302 34.6739 77.294 34.6811 77.3539 34.702C77.4138 34.7228 77.4681 34.7568 77.513 34.8014C77.5579 34.8459 77.592 34.8999 77.613 34.9594C77.634 35.0189 77.6413 35.0823 77.6343 35.145V41.178C77.6158 41.6249 77.6888 42.0708 77.8489 42.4888C77.9124 42.644 78.0065 42.785 78.1258 42.9035C78.245 43.022 78.387 43.1155 78.5432 43.1786C78.9639 43.3376 79.4128 43.4102 79.8625 43.3918H81.6362C82.0881 43.4119 82.5394 43.3393 82.9618 43.1786C83.1181 43.1155 83.26 43.022 83.3793 42.9035C83.4985 42.785 83.5927 42.644 83.6562 42.4888C83.8108 42.0695 83.8816 41.6243 83.8645 41.178V35.145C83.8608 35.082 83.8701 35.0189 83.8918 34.9596C83.9135 34.9003 83.9472 34.846 83.9907 34.8C84.0365 34.7584 84.0903 34.7263 84.1489 34.7059C84.2075 34.6854 84.2696 34.6769 84.3316 34.6809C84.3946 34.6739 84.4584 34.6811 84.5183 34.702C84.5782 34.7228 84.6325 34.7568 84.6774 34.8014C84.7223 34.8459 84.7565 34.8999 84.7774 34.9594C84.7984 35.0189 84.8057 35.0823 84.7987 35.145V41.178C84.8741 41.6065 84.8447 42.0467 84.7128 42.4614C84.5808 42.8761 84.3504 43.2532 84.0408 43.5608C83.7313 43.8683 83.3517 44.0973 82.9343 44.2284C82.5168 44.3594 82.0738 44.3887 81.6425 44.3137H79.8625Z" fill="black"/>
<path d="M89.5392 44.3138C89.4764 44.3234 89.4123 44.3181 89.352 44.2985C89.2917 44.2789 89.2368 44.2455 89.192 44.2009C89.1471 44.1563 89.1134 44.1018 89.0937 44.0419C89.0739 43.982 89.0687 43.9183 89.0784 43.8559V35.145C89.069 35.0824 89.0744 35.0186 89.0941 34.9584C89.1138 34.8983 89.1474 34.8436 89.1921 34.7986C89.2368 34.7535 89.2914 34.7195 89.3516 34.6991C89.4119 34.6786 89.4761 34.6724 89.5392 34.6809C89.6333 34.6878 89.7248 34.7156 89.8067 34.7622C89.8886 34.8089 89.959 34.8733 90.0126 34.9506L96.1796 42.8212H95.9461V35.145C95.9384 35.0799 95.9447 35.014 95.9645 34.9515C95.9844 34.8891 96.0173 34.8315 96.0611 34.7826C96.1049 34.7337 96.1587 34.6945 96.2188 34.6677C96.2789 34.6409 96.3441 34.627 96.41 34.627C96.4759 34.627 96.5411 34.6409 96.6013 34.6677C96.6614 34.6945 96.7151 34.7337 96.759 34.7826C96.8028 34.8315 96.8357 34.8891 96.8555 34.9515C96.8753 35.014 96.8816 35.0799 96.874 35.145V43.8559C96.8836 43.9183 96.8784 43.982 96.8587 44.0419C96.8389 44.1018 96.8052 44.1563 96.7604 44.2009C96.7155 44.2455 96.6607 44.2789 96.6004 44.2985C96.54 44.3181 96.4759 44.3234 96.4132 44.3138C96.319 44.3069 96.2276 44.279 96.1456 44.2324C96.0637 44.1857 95.9933 44.1214 95.9398 44.0441L89.7727 36.1735H89.9936V43.8559C90.0017 43.9174 89.9956 43.9799 89.9757 44.0387C89.9559 44.0975 89.9227 44.151 89.8789 44.1951C89.8351 44.2393 89.7817 44.2729 89.7228 44.2934C89.664 44.314 89.6011 44.321 89.5392 44.3138Z" fill="black"/>
<path d="M101.703 44.3137C101.64 44.3233 101.576 44.3181 101.516 44.2985C101.455 44.2788 101.401 44.2454 101.356 44.2008C101.311 44.1562 101.277 44.1018 101.257 44.0418C101.238 43.9819 101.232 43.9182 101.242 43.8559V35.1449C101.233 35.0824 101.238 35.0185 101.258 34.9584C101.278 34.8983 101.311 34.8435 101.356 34.7985C101.4 34.7535 101.455 34.7194 101.515 34.699C101.576 34.6786 101.64 34.6723 101.703 34.6808H105.276C105.768 34.5958 106.273 34.6298 106.749 34.7798C107.225 34.9298 107.658 35.1914 108.011 35.5426C108.364 35.8938 108.626 36.3242 108.777 36.7975C108.927 37.2708 108.96 37.773 108.874 38.2618V40.739C108.956 41.7209 108.648 42.6959 108.015 43.4545C107.638 43.7708 107.202 44.0096 106.732 44.1571C106.262 44.3046 105.767 44.3578 105.276 44.3137H101.703ZM102.17 43.3918H105.276C105.812 43.4118 106.346 43.3243 106.847 43.1347C107.227 42.9769 107.528 42.6773 107.687 42.3006C107.878 41.8026 107.966 41.2715 107.946 40.739V38.2618C107.965 37.7273 107.877 37.1943 107.687 36.6939C107.528 36.3172 107.227 36.0176 106.847 35.8598C106.346 35.6702 105.812 35.5827 105.276 35.6027H102.17V43.3918Z" fill="black"/>
<path d="M112.169 44.2699C112.104 44.2539 112.044 44.2232 111.994 44.18C111.944 44.1369 111.904 44.0825 111.879 44.0215C111.854 43.9604 111.844 43.8943 111.849 43.8285C111.854 43.7627 111.875 43.699 111.91 43.6427L115.514 35.0384C115.552 34.9311 115.623 34.8386 115.717 34.7743C115.811 34.71 115.924 34.6772 116.038 34.6809H116.076C116.188 34.6773 116.298 34.7103 116.389 34.7749C116.48 34.8395 116.548 34.932 116.581 35.0384L120.223 43.6615C120.259 43.7171 120.281 43.7804 120.288 43.8463C120.294 43.9121 120.285 43.9785 120.26 44.0399C120.235 44.1014 120.196 44.156 120.146 44.1993C120.095 44.2425 120.035 44.2732 119.97 44.2887C119.915 44.3261 119.852 44.3496 119.786 44.3571C119.719 44.3647 119.652 44.356 119.59 44.3319C119.528 44.3078 119.472 44.269 119.429 44.2188C119.385 44.1687 119.354 44.1087 119.339 44.0441L118.418 41.8554H113.683L112.775 44.0441C112.757 44.104 112.726 44.1591 112.683 44.2049C112.64 44.2506 112.587 44.2859 112.528 44.3078C112.47 44.3297 112.406 44.3377 112.344 44.3311C112.281 44.3245 112.221 44.3036 112.169 44.2699ZM114.062 40.9147H118.039L116.025 36.1421L114.062 40.9147Z" fill="black"/>
<path d="M125.348 44.3263C125.285 44.3299 125.222 44.3207 125.162 44.2991C125.102 44.2775 125.048 44.2441 125.001 44.2008C124.919 44.1075 124.876 43.9862 124.881 43.8622V35.6027H121.826C121.763 35.6068 121.7 35.5984 121.641 35.578C121.581 35.5575 121.526 35.5254 121.479 35.4836C121.437 35.4381 121.405 35.3846 121.384 35.3264C121.364 35.2682 121.355 35.2065 121.359 35.1449C121.355 35.0824 121.363 35.0195 121.384 34.9603C121.404 34.901 121.437 34.8464 121.479 34.8C121.578 34.7245 121.703 34.6907 121.826 34.7059H128.871C128.933 34.7019 128.995 34.7104 129.053 34.7309C129.112 34.7514 129.166 34.7834 129.212 34.8251C129.255 34.871 129.289 34.9253 129.311 34.9846C129.332 35.0439 129.342 35.107 129.338 35.17C129.343 35.2319 129.334 35.2941 129.312 35.3523C129.29 35.4104 129.256 35.4631 129.211 35.5067C129.167 35.5503 129.113 35.5837 129.055 35.6047C128.996 35.6256 128.933 35.6335 128.871 35.6278H125.816V43.8622C125.819 43.987 125.774 44.1084 125.689 44.2008C125.644 44.2439 125.591 44.2773 125.532 44.2989C125.473 44.3205 125.411 44.3298 125.348 44.3263Z" fill="black"/>
<path d="M133.043 44.3137C132.98 44.3178 132.917 44.3094 132.857 44.2889C132.798 44.2685 132.743 44.2364 132.696 44.1945C132.654 44.149 132.622 44.0956 132.601 44.0374C132.581 43.9792 132.572 43.9174 132.576 43.8559V35.1449C132.571 35.0814 132.579 35.0174 132.6 34.9571C132.62 34.8967 132.653 34.8411 132.696 34.7937C132.793 34.7138 132.917 34.6735 133.043 34.6808C133.169 34.6715 133.294 34.7121 133.39 34.7937C133.475 34.8909 133.518 35.0168 133.51 35.1449V43.8559C133.516 43.9799 133.473 44.1012 133.39 44.1945C133.344 44.2373 133.289 44.27 133.229 44.2905C133.17 44.311 133.106 44.3189 133.043 44.3137Z" fill="black"/>
<path d="M140.763 44.3137C140.332 44.3872 139.89 44.3569 139.473 44.2253C139.056 44.0937 138.677 43.8647 138.368 43.5575C138.059 43.2503 137.828 42.8739 137.696 42.4598C137.563 42.0458 137.533 41.6062 137.607 41.178V37.8416C137.569 37.4125 137.618 36.9802 137.75 36.5699C137.882 36.1597 138.095 35.7797 138.377 35.4522C138.703 35.1729 139.082 34.9625 139.492 34.8342C139.903 34.7059 140.335 34.6622 140.763 34.7059H142.543C142.974 34.6325 143.416 34.6628 143.833 34.7944C144.25 34.9259 144.629 35.155 144.938 35.4622C145.247 35.7694 145.478 36.1458 145.61 36.5598C145.743 36.9739 145.773 37.4134 145.699 37.8416V41.2031C145.773 41.6313 145.743 42.0709 145.61 42.4849C145.478 42.8989 145.247 43.2754 144.938 43.5826C144.629 43.8898 144.25 44.1188 143.833 44.2504C143.416 44.382 142.974 44.4123 142.543 44.3388L140.763 44.3137ZM140.763 43.3918H142.537C142.987 43.4114 143.436 43.3388 143.856 43.1786C144.172 43.049 144.423 42.8012 144.557 42.4887C144.711 42.0695 144.782 41.6242 144.765 41.178V37.8416C144.783 37.3974 144.712 36.9541 144.557 36.5372C144.493 36.3802 144.398 36.2376 144.278 36.118C144.158 35.9983 144.014 35.9041 143.856 35.8411C143.436 35.6808 142.987 35.6083 142.537 35.6278H140.763C140.314 35.6087 139.866 35.6769 139.444 35.8285C139.131 35.9606 138.882 36.2079 138.749 36.5184C138.594 36.9397 138.524 37.3871 138.541 37.8354V41.2031C138.524 41.6493 138.595 42.0946 138.749 42.5138C138.885 42.8248 139.136 43.0718 139.45 43.2037C139.87 43.3538 140.317 43.4178 140.763 43.3918Z" fill="black"/>
<path d="M150.269 44.3137C150.206 44.3231 150.142 44.3177 150.081 44.2981C150.021 44.2785 149.966 44.2452 149.921 44.2007C149.875 44.1563 149.841 44.1021 149.82 44.0422C149.8 43.9824 149.794 43.9186 149.802 43.8559V35.145C149.793 35.0818 149.798 35.0173 149.818 34.9566C149.838 34.896 149.872 34.8408 149.918 34.7957C149.963 34.7505 150.019 34.7166 150.08 34.6967C150.141 34.6767 150.206 34.6713 150.269 34.6809C150.363 34.6878 150.455 34.7156 150.537 34.7622C150.619 34.8089 150.689 34.8733 150.743 34.9505L156.903 42.8211H156.682V35.145C156.682 35.0219 156.732 34.9038 156.819 34.8168C156.907 34.7298 157.026 34.6809 157.15 34.6809C157.273 34.6809 157.392 34.7298 157.48 34.8168C157.567 34.9038 157.617 35.0219 157.617 35.145V43.8559C157.625 43.9186 157.619 43.9824 157.598 44.0422C157.578 44.1021 157.544 44.1563 157.498 44.2007C157.453 44.2452 157.398 44.2785 157.337 44.2981C157.277 44.3177 157.213 44.3231 157.15 44.3137C157.055 44.3068 156.964 44.279 156.882 44.2324C156.8 44.1857 156.73 44.1214 156.676 44.0441L150.515 36.1735H150.736V43.8559C150.745 43.9186 150.739 43.9824 150.718 44.0422C150.697 44.1021 150.663 44.1563 150.618 44.2007C150.573 44.2452 150.517 44.2785 150.457 44.2981C150.396 44.3177 150.332 44.3231 150.269 44.3137Z" fill="black"/>
<path d="M0 7.3877V11.0816H25.5709L0 36.487L2.62589 39.0959L34.5469 7.3877H0Z" fill="#F7B749"/>
<path d="M38.2648 3.69386L41.9827 0H0V3.69386H38.2648Z" fill="#ED362F"/>
<path d="M40.8907 6.30274V44.32H44.6086V2.60889L40.8907 6.30274Z" fill="#43B85C"/>
<path d="M37.1791 44.32V9.99664L5.25812 41.7111L7.88401 44.32L33.4612 18.9146V44.32H37.1791Z" fill="#2CB4E2"/>
</g>
<defs>
<clipPath id="clip0_21_103">
<rect width="189.367" height="44.32" fill="white"/>
</clipPath>
</defs>
</svg>
