<svg width="250" height="27" viewBox="0 0 250 27" fill="none" xmlns="http://www.w3.org/2000/svg">
<g clip-path="url(#clip0_423_1470)">
<path d="M41.0374 20.1375C40.4326 20.1873 39.8238 20.1169 39.2463 19.9304C38.6688 19.744 38.1339 19.445 37.6724 19.0509C37.2794 18.5905 36.9811 18.057 36.7946 17.4811C36.6081 16.9052 36.5372 16.2981 36.5858 15.6947V11.1204C36.5337 10.5167 36.6031 9.90878 36.7897 9.33236C36.9763 8.75594 37.2764 8.22271 37.6724 7.76411C38.1322 7.37434 38.665 7.07989 39.2397 6.89786C39.8143 6.71583 40.4195 6.64986 41.0199 6.70378H43.3947C43.9981 6.65421 44.6055 6.72472 45.1815 6.91122C45.7576 7.09773 46.291 7.39655 46.7509 7.7904C47.144 8.25048 47.4418 8.78412 47.6268 9.3603C47.8119 9.93648 47.8805 10.5437 47.8288 11.1467V15.6947C47.8786 16.2975 47.809 16.9042 47.624 17.4801C47.4391 18.056 47.1424 18.5898 46.7509 19.0509C46.291 19.4448 45.7576 19.7436 45.1815 19.9301C44.6055 20.1166 43.9981 20.1871 43.3947 20.1375H41.0374ZM41.0374 18.4726H43.4122C43.9783 18.4937 44.5432 18.4075 45.0772 18.2184C45.2767 18.1423 45.4579 18.0249 45.609 17.8739C45.76 17.7229 45.8774 17.5417 45.9535 17.3421C46.1475 16.8094 46.2339 16.2435 46.2076 15.6771V11.1467C46.2332 10.5832 46.1468 10.0203 45.9535 9.49043C45.8774 9.29088 45.76 9.10966 45.609 8.95864C45.4579 8.80763 45.2767 8.69022 45.0772 8.61412C44.545 8.41735 43.9791 8.328 43.4122 8.35123H41.0374C40.4892 8.34064 39.9434 8.42667 39.425 8.60536C39.226 8.68242 39.0453 8.80016 38.8944 8.95105C38.7435 9.10195 38.6258 9.28267 38.5487 9.48167C38.3519 10.0108 38.2626 10.5738 38.2858 11.1379V15.7122C38.264 16.2783 38.3503 16.8434 38.5399 17.3772C38.617 17.5762 38.7347 17.7569 38.8856 17.9078C39.0365 18.0587 39.2172 18.1764 39.4162 18.2535C39.9385 18.4258 40.4881 18.5001 41.0374 18.4726Z" fill="white"/>
<path d="M52.1226 24.0897C52.0104 24.1055 51.896 24.0951 51.7884 24.0595C51.6809 24.0238 51.583 23.9637 51.5024 23.884C51.4218 23.8043 51.3607 23.707 51.3239 23.5998C51.2871 23.4926 51.2756 23.3784 51.2902 23.266V10.9276C51.3478 10.7523 51.4593 10.5996 51.6088 10.4914C51.7583 10.3832 51.9381 10.3249 52.1226 10.3249C52.3072 10.3249 52.487 10.3832 52.6365 10.4914C52.786 10.5996 52.8975 10.7523 52.9551 10.9276V11.1729C53.3289 10.8067 53.7815 10.5309 54.2784 10.3667C54.8433 10.1789 55.4357 10.0871 56.031 10.0951H56.7758C57.3051 10.0089 57.8473 10.0499 58.3576 10.2145C58.868 10.3791 59.3319 10.6627 59.7111 11.0419C60.0903 11.4211 60.3739 11.885 60.5385 12.3953C60.7031 12.9057 60.744 13.4478 60.6579 13.9771V16.2555C60.74 16.7841 60.6963 17.3246 60.5303 17.8331C60.3643 18.3416 60.0806 18.8038 59.7024 19.1821C59.3241 19.5603 58.8619 19.844 58.3534 20.01C57.8449 20.176 57.3044 20.2197 56.7758 20.1375H52.9376V23.266C52.9516 23.3767 52.9403 23.4892 52.9044 23.5949C52.8686 23.7006 52.8091 23.7968 52.7306 23.8762C52.6521 23.9555 52.5566 24.016 52.4512 24.053C52.3459 24.09 52.2335 24.1025 52.1226 24.0897ZM52.999 18.4726H56.8372C57.4588 18.541 58.0836 18.3755 58.5898 18.0081C58.9571 17.502 59.1227 16.8771 59.0542 16.2555V13.9771C59.1227 13.3555 58.9571 12.7306 58.5898 12.2245C58.0824 11.8603 57.4577 11.6978 56.8372 11.7688H56.0748C55.3506 11.7518 54.6285 11.8524 53.9366 12.0668C53.3319 12.2596 53.0603 12.575 52.9814 13.0044L52.999 18.4726Z" fill="white"/>
<path d="M65.3111 15.7997V16.2729C65.2373 16.895 65.4034 17.5217 65.7755 18.0256C66.2816 18.3929 66.9065 18.5585 67.5281 18.49H69.1493C69.6563 18.5156 70.1637 18.4503 70.6478 18.2972C70.7987 18.2442 70.9356 18.1575 71.048 18.0436C71.1604 17.9297 71.2453 17.7916 71.2962 17.64C71.3444 17.4249 71.447 17.2257 71.5942 17.0616C71.6736 16.9905 71.7665 16.936 71.8673 16.9014C71.9682 16.8667 72.0749 16.8527 72.1813 16.8601C72.4123 16.8469 72.6391 16.9257 72.8122 17.0791C72.888 17.1651 72.9406 17.2689 72.9651 17.3808C72.9897 17.4928 72.9853 17.6091 72.9524 17.7188C72.901 18.0911 72.7703 18.4479 72.5693 18.7654C72.3682 19.0828 72.1014 19.3535 71.787 19.5591C70.985 20.004 70.0738 20.2136 69.158 20.1637H67.5369C67.0102 20.205 66.4805 20.1419 65.9782 19.978C65.4759 19.8141 65.011 19.5526 64.61 19.2086C64.2661 18.811 64.0046 18.3491 63.8406 17.8497C63.6766 17.3503 63.6135 16.8233 63.6548 16.2992V13.977C63.6108 13.4447 63.6725 12.909 63.8365 12.4006C64.0004 11.8923 64.2633 11.4214 64.61 11.0151C65.0158 10.683 65.4834 10.4345 65.9858 10.2841C66.4881 10.1337 67.0153 10.0843 67.5369 10.1388H69.158C69.6856 10.0947 70.2167 10.1556 70.7206 10.318C71.2245 10.4805 71.6912 10.7412 72.0937 11.0852C72.438 11.4874 72.6991 11.9541 72.8615 12.458C73.024 12.962 73.0847 13.4932 73.0401 14.0208V15.0111C73.0641 15.1274 73.0596 15.2477 73.027 15.3619C72.9943 15.4761 72.9346 15.5807 72.8528 15.6668C72.771 15.7528 72.6696 15.8179 72.5573 15.8563C72.4449 15.8947 72.325 15.9054 72.2076 15.8874L65.3111 15.7997ZM67.5281 11.76C66.908 11.6748 66.2791 11.8352 65.7755 12.2069C65.4089 12.7134 65.2434 13.3379 65.3111 13.9595V14.1172H71.3751V13.9595C71.4436 13.3379 71.278 12.713 70.9106 12.2069C70.4033 11.8426 69.7786 11.6802 69.158 11.7512L67.5281 11.76Z" fill="white"/>
<path d="M77.3077 20.1375C77.1953 20.1521 77.081 20.1406 76.9738 20.1038C76.8666 20.0669 76.7694 20.0059 76.6896 19.9253C76.6099 19.8447 76.5499 19.7468 76.5142 19.6392C76.4785 19.5317 76.4682 19.4173 76.4839 19.305V10.9276C76.472 10.8117 76.4845 10.6945 76.5207 10.5838C76.5569 10.473 76.6159 10.3711 76.694 10.2846C76.772 10.1981 76.8674 10.1289 76.9738 10.0816C77.0803 10.0342 77.1955 10.0098 77.3121 10.0098C77.4286 10.0098 77.5438 10.0342 77.6503 10.0816C77.7567 10.1289 77.8521 10.1981 77.9301 10.2846C78.0082 10.3711 78.0672 10.473 78.1034 10.5838C78.1396 10.6945 78.1521 10.8117 78.1402 10.9276V11.2518C78.5429 10.8487 79.0275 10.5368 79.5612 10.3373C80.0948 10.1377 80.6652 10.0551 81.2335 10.0951H81.7856C82.3131 10.0519 82.844 10.1133 83.3477 10.2757C83.8515 10.4381 84.3182 10.6983 84.7212 11.0415C85.0644 11.4445 85.3246 11.9112 85.487 12.415C85.6494 12.9187 85.7108 13.4496 85.6676 13.9771V19.305C85.61 19.4804 85.4985 19.633 85.349 19.7412C85.1995 19.8495 85.0197 19.9077 84.8352 19.9077C84.6506 19.9077 84.4708 19.8495 84.3213 19.7412C84.1718 19.633 84.0603 19.4804 84.0026 19.305V13.9771C84.0711 13.3555 83.9055 12.7306 83.5382 12.2245C83.0301 11.8618 82.406 11.6995 81.7856 11.7688H81.2335C80.5344 11.7549 79.8372 11.8465 79.1655 12.0405C78.5783 12.2245 78.2366 12.5049 78.1402 12.9168V19.3313C78.1518 19.4424 78.1381 19.5546 78.1 19.6596C78.0619 19.7645 78.0004 19.8594 77.9202 19.9371C77.84 20.0148 77.7432 20.0732 77.637 20.1079C77.5309 20.1426 77.4183 20.1528 77.3077 20.1375Z" fill="white"/>
<path d="M90.2507 20.1375C90.0209 20.153 89.7943 20.0775 89.6198 19.9272C89.4748 19.7536 89.4026 19.5306 89.4182 19.305V7.56251C89.4082 7.44787 89.4208 7.33237 89.4554 7.22261C89.4899 7.11285 89.5458 7.01098 89.6198 6.92281C89.8063 6.79735 90.0259 6.73035 90.2507 6.73035C90.4755 6.73035 90.6951 6.79735 90.8816 6.92281C90.9556 7.01098 91.0115 7.11285 91.046 7.22261C91.0806 7.33237 91.0932 7.44787 91.0832 7.56251V19.305C91.0988 19.5306 91.0266 19.7536 90.8816 19.9272C90.7071 20.0775 90.4805 20.153 90.2507 20.1375Z" fill="white"/>
<path d="M95.8065 20.1374C95.6902 20.1614 95.5698 20.1569 95.4556 20.1243C95.3415 20.0917 95.2369 20.032 95.1508 19.9502C95.0647 19.8684 94.9997 19.767 94.9613 19.6547C94.9228 19.5423 94.9122 19.4223 94.9302 19.3049V10.9275C94.9302 10.7067 95.0179 10.4949 95.174 10.3388C95.3301 10.1827 95.5419 10.095 95.7627 10.095C95.9834 10.095 96.1952 10.1827 96.3513 10.3388C96.5074 10.4949 96.5952 10.7067 96.5952 10.9275V11.2517C96.9958 10.8484 97.4788 10.5362 98.0112 10.3366C98.5435 10.137 99.1126 10.0546 99.6797 10.095H100.241C100.769 10.0108 101.311 10.0531 101.82 10.2185C102.33 10.3838 102.793 10.6674 103.171 11.0461C103.55 11.4249 103.834 11.8879 103.999 12.3973C104.164 12.9067 104.207 13.4481 104.123 13.977V19.3049C104.123 19.5257 104.035 19.7375 103.879 19.8936C103.723 20.0497 103.511 20.1374 103.29 20.1374C103.069 20.1374 102.858 20.0497 102.701 19.8936C102.545 19.7375 102.458 19.5257 102.458 19.3049V13.977C102.529 13.3539 102.36 12.727 101.984 12.2244C101.477 11.8594 100.852 11.6969 100.232 11.7687H99.671C98.9719 11.7548 98.2747 11.8464 97.6029 12.0404C97.0158 12.2244 96.674 12.5048 96.5864 12.9167V19.3312C96.5968 19.4374 96.5839 19.5446 96.5488 19.6453C96.5136 19.7461 96.457 19.838 96.3828 19.9147C96.3086 19.9914 96.2187 20.051 96.1192 20.0895C96.0196 20.1279 95.9129 20.1443 95.8065 20.1374Z" fill="white"/>
<path d="M109.091 20.1374C108.978 20.1535 108.863 20.1431 108.755 20.107C108.646 20.0708 108.548 20.01 108.467 19.9292C108.386 19.8484 108.325 19.75 108.289 19.6416C108.253 19.5333 108.243 19.418 108.259 19.305V11.76H107.531C107.311 11.76 107.099 11.6723 106.943 11.5161C106.787 11.36 106.699 11.1483 106.699 10.9275C106.699 10.7067 106.787 10.4949 106.943 10.3388C107.099 10.1827 107.311 10.095 107.531 10.095H108.259V10.0161C108.216 9.49537 108.278 8.97136 108.44 8.47479C108.603 7.97823 108.863 7.5191 109.205 7.12431C109.599 6.78736 110.056 6.53179 110.549 6.37236C111.043 6.21293 111.563 6.15279 112.079 6.19542C112.561 6.19542 112.798 6.46708 112.798 7.07173C112.798 7.67638 112.561 7.89546 112.079 7.89546C111.477 7.82937 110.871 7.98856 110.379 8.34237C110.005 8.84471 109.841 9.4737 109.924 10.095V10.1739H111.966C112.186 10.1739 112.398 10.2616 112.554 10.4177C112.71 10.5738 112.798 10.7856 112.798 11.0063C112.798 11.2271 112.71 11.4389 112.554 11.595C112.398 11.7511 112.186 11.8388 111.966 11.8388H109.924V19.3838C109.927 19.4906 109.907 19.5969 109.866 19.6953C109.824 19.7936 109.761 19.8817 109.682 19.9534C109.603 20.0252 109.509 20.0788 109.407 20.1105C109.305 20.1423 109.197 20.1515 109.091 20.1374Z" fill="white"/>
<path d="M116.163 20.1375C116.05 20.1536 115.935 20.1432 115.826 20.107C115.718 20.0709 115.62 20.01 115.539 19.9292C115.458 19.8485 115.397 19.75 115.361 19.6417C115.325 19.5333 115.314 19.4181 115.331 19.305V10.9275C115.287 10.7959 115.276 10.6559 115.297 10.519C115.319 10.3821 115.372 10.2522 115.453 10.14C115.534 10.0278 115.641 9.93644 115.765 9.87344C115.888 9.81044 116.025 9.77759 116.163 9.77759C116.302 9.77759 116.438 9.81044 116.562 9.87344C116.685 9.93644 116.792 10.0278 116.873 10.14C116.954 10.2522 117.008 10.3821 117.029 10.519C117.05 10.6559 117.039 10.7959 116.996 10.9275V11.6724C117.378 11.1484 117.892 10.7344 118.485 10.4718C119.141 10.1915 119.849 10.0541 120.562 10.0687C120.671 10.0687 120.78 10.0903 120.881 10.1321C120.982 10.1739 121.073 10.2353 121.151 10.3126C121.228 10.3899 121.289 10.4816 121.331 10.5827C121.373 10.6837 121.395 10.7919 121.395 10.9012C121.395 11.0106 121.373 11.1188 121.331 11.2198C121.289 11.3208 121.228 11.4126 121.151 11.4899C121.073 11.5672 120.982 11.6285 120.881 11.6704C120.78 11.7122 120.671 11.7337 120.562 11.7337C119.642 11.6732 118.725 11.8932 117.933 12.3647C117.653 12.5478 117.421 12.7953 117.257 13.0865C117.092 13.3777 116.999 13.7041 116.987 14.0384V19.2962C117.004 19.4091 116.995 19.5245 116.96 19.6333C116.925 19.742 116.865 19.8411 116.785 19.9227C116.705 20.0043 116.607 20.0662 116.499 20.1035C116.391 20.1408 116.276 20.1524 116.163 20.1375Z" fill="white"/>
<path d="M126.083 20.1374C125.635 20.2043 125.178 20.1651 124.748 20.0231C124.318 19.881 123.928 19.64 123.608 19.3195C123.288 18.9989 123.048 18.6078 122.908 18.1776C122.767 17.7474 122.729 17.2901 122.797 16.8425C122.762 16.3979 122.815 15.9507 122.954 15.5266C123.092 15.1026 123.313 14.71 123.603 14.3714C123.941 14.0768 124.334 13.8529 124.76 13.7129C125.186 13.5729 125.636 13.5197 126.083 13.5564H130.272C130.287 13.2948 130.246 13.0329 130.153 12.7882C130.059 12.5434 129.914 12.3214 129.728 12.1368C129.227 11.8384 128.644 11.7065 128.063 11.76H126.915C126.421 11.7438 125.927 11.7879 125.443 11.8914C125.302 11.9202 125.169 11.9779 125.051 12.0609C124.933 12.1438 124.834 12.2502 124.76 12.3734C124.677 12.5864 124.552 12.7802 124.392 12.943C124.226 13.0599 124.024 13.1157 123.822 13.1007C123.704 13.1084 123.586 13.0922 123.474 13.053C123.363 13.0139 123.261 12.9526 123.174 12.8729C123.095 12.792 123.041 12.6912 123.016 12.5814C122.991 12.4717 122.997 12.3573 123.033 12.2507C123.115 11.9059 123.268 11.582 123.482 11.2998C123.697 11.0176 123.967 10.7833 124.278 10.612C125.099 10.2291 126.001 10.0517 126.907 10.095H128.055C128.583 10.0108 129.125 10.0531 129.634 10.2185C130.144 10.3838 130.607 10.6674 130.985 11.0461C131.364 11.4249 131.648 11.8879 131.813 12.3973C131.978 12.9067 132.021 13.4481 131.937 13.977V19.305C131.879 19.4803 131.767 19.6329 131.618 19.7411C131.468 19.8494 131.289 19.9076 131.104 19.9076C130.92 19.9076 130.74 19.8494 130.59 19.7411C130.441 19.6329 130.329 19.4803 130.272 19.305V18.858C129.89 19.2935 129.413 19.6353 128.878 19.8572C128.344 20.079 127.765 20.1749 127.187 20.1374H126.083ZM126.083 18.4725H127.196C127.658 18.4763 128.119 18.4293 128.572 18.3323C128.972 18.2592 129.35 18.0942 129.676 17.8503C129.991 17.5895 130.205 17.2268 130.28 16.825V15.2214H126.083C125.623 15.1692 125.159 15.2842 124.777 15.5456C124.509 15.9222 124.385 16.3822 124.427 16.8425C124.371 17.3016 124.483 17.7652 124.742 18.1482C125.134 18.418 125.611 18.5334 126.083 18.4725Z" fill="white"/>
<path d="M142.242 20.1375C142.126 20.1615 142.005 20.157 141.891 20.1244C141.777 20.0918 141.672 20.032 141.586 19.9503C141.5 19.8685 141.435 19.7671 141.397 19.6547C141.358 19.5424 141.348 19.4224 141.366 19.305V7.53623C141.339 7.41567 141.344 7.29043 141.378 7.17201C141.413 7.05359 141.477 6.9458 141.564 6.85854C141.651 6.77128 141.759 6.70737 141.878 6.67266C141.996 6.63795 142.121 6.63357 142.242 6.65992H149.533C149.648 6.65093 149.763 6.66788 149.871 6.70952C149.979 6.75117 150.076 6.81646 150.155 6.90056C150.234 6.98466 150.293 7.08544 150.328 7.19546C150.363 7.30548 150.373 7.42193 150.357 7.53623C150.374 7.64881 150.365 7.76398 150.33 7.87243C150.295 7.98089 150.235 8.0796 150.155 8.16061C150.075 8.24162 149.977 8.30266 149.869 8.33881C149.761 8.37496 149.646 8.3852 149.533 8.36872H143.074V12.5487H147.053C147.184 12.5054 147.324 12.494 147.461 12.5153C147.598 12.5366 147.728 12.5901 147.84 12.6714C147.953 12.7526 148.044 12.8593 148.107 12.9827C148.17 13.1061 148.203 13.2426 148.203 13.3812C148.203 13.5197 148.17 13.6563 148.107 13.7797C148.044 13.9031 147.953 14.0098 147.84 14.091C147.728 14.1722 147.598 14.2257 147.461 14.247C147.324 14.2684 147.184 14.2569 147.053 14.2137H143.074V19.3225C143.088 19.4343 143.075 19.5475 143.037 19.6536C143 19.7597 142.939 19.8557 142.858 19.9344C142.778 20.0131 142.681 20.0724 142.574 20.1076C142.467 20.1428 142.353 20.153 142.242 20.1375Z" fill="white"/>
<path d="M154.221 20.1374C153.696 20.1795 153.167 20.1167 152.666 19.9527C152.165 19.7887 151.702 19.5269 151.303 19.1823C150.957 18.7858 150.695 18.324 150.531 17.8243C150.367 17.3246 150.304 16.7971 150.348 16.2729V13.977C150.264 13.4489 150.306 12.9085 150.471 12.3999C150.636 11.8912 150.919 11.4288 151.296 11.0503C151.674 10.6718 152.136 10.3879 152.644 10.2219C153.152 10.0559 153.693 10.0124 154.221 10.095H155.851C156.38 10.0108 156.921 10.0531 157.431 10.2185C157.94 10.3838 158.403 10.6674 158.782 11.0461C159.161 11.4249 159.444 11.8879 159.609 12.3973C159.775 12.9067 159.817 13.4481 159.733 13.977V16.2554C159.813 16.7836 159.768 17.3233 159.601 17.8309C159.435 18.3386 159.151 18.7999 158.773 19.1777C158.395 19.5555 157.934 19.8392 157.426 20.0059C156.919 20.1726 156.379 20.2177 155.851 20.1374H154.221ZM152.004 16.2729C151.93 16.8949 152.096 17.5217 152.468 18.0255C152.975 18.3929 153.599 18.5585 154.221 18.49H155.851C156.473 18.5602 157.098 18.3944 157.604 18.0255C157.971 17.5194 158.136 16.8946 158.068 16.2729V13.9945C158.136 13.3729 157.971 12.7481 157.604 12.2419C157.097 11.8769 156.472 11.7144 155.851 11.7863H154.221C153.766 11.767 153.311 11.8324 152.88 11.979C152.727 12.0375 152.587 12.1279 152.471 12.2442C152.354 12.3605 152.264 12.5001 152.206 12.6538C152.054 13.0869 151.986 13.5448 152.004 14.0033V16.2729Z" fill="white"/>
<path d="M171.353 10.095C171.466 10.0789 171.581 10.0893 171.689 10.1255C171.798 10.1616 171.896 10.2225 171.977 10.3032C172.058 10.384 172.119 10.4825 172.155 10.5908C172.191 10.6991 172.201 10.8144 172.185 10.9275V19.305C172.185 19.5258 172.098 19.7375 171.941 19.8936C171.785 20.0497 171.574 20.1375 171.353 20.1375C171.132 20.1375 170.92 20.0497 170.764 19.8936C170.608 19.7375 170.52 19.5258 170.52 19.305V18.972C170.12 19.379 169.636 19.6941 169.102 19.8953C168.568 20.0966 167.996 20.1792 167.427 20.1375H166.875C166.346 20.2212 165.804 20.1786 165.294 20.0133C164.785 19.848 164.321 19.5645 163.942 19.1861C163.563 18.8076 163.278 18.3449 163.112 17.8356C162.945 17.3263 162.902 16.7848 162.984 16.2554V10.9275C162.984 10.7067 163.072 10.4949 163.228 10.3388C163.384 10.1827 163.596 10.095 163.817 10.095C164.037 10.095 164.249 10.1827 164.405 10.3388C164.561 10.4949 164.649 10.7067 164.649 10.9275V16.2554C164.577 16.8786 164.746 17.5058 165.122 18.008C165.627 18.3777 166.253 18.5435 166.875 18.4725H167.427C168.129 18.4825 168.828 18.391 169.504 18.2008C170.091 18.0168 170.424 17.7276 170.52 17.3245V10.9275C170.504 10.8144 170.515 10.6991 170.551 10.5908C170.587 10.4825 170.648 10.384 170.729 10.3032C170.809 10.2225 170.908 10.1616 171.016 10.1255C171.124 10.0893 171.24 10.0789 171.353 10.095Z" fill="white"/>
<path d="M176.935 20.1374C176.822 20.1535 176.707 20.1431 176.598 20.107C176.49 20.0708 176.391 20.01 176.311 19.9292C176.23 19.8484 176.169 19.75 176.133 19.6416C176.097 19.5333 176.086 19.418 176.102 19.3049V10.9275C176.16 10.7522 176.272 10.5995 176.421 10.4913C176.57 10.3831 176.75 10.3248 176.935 10.3248C177.119 10.3248 177.299 10.3831 177.449 10.4913C177.598 10.5995 177.71 10.7522 177.767 10.9275V11.2517C178.169 10.8477 178.654 10.5352 179.188 10.3356C179.722 10.1359 180.292 10.0539 180.861 10.095H181.386C181.915 10.0108 182.457 10.0531 182.966 10.2185C183.476 10.3838 183.939 10.6674 184.317 11.0461C184.696 11.4249 184.98 11.8879 185.145 12.3973C185.31 12.9067 185.353 13.4481 185.269 13.977V19.3049C185.211 19.4803 185.099 19.6329 184.95 19.7411C184.8 19.8494 184.621 19.9076 184.436 19.9076C184.251 19.9076 184.072 19.8494 183.922 19.7411C183.773 19.6329 183.661 19.4803 183.604 19.3049V13.977C183.675 13.3539 183.506 12.727 183.13 12.2244C182.623 11.8594 181.998 11.6969 181.378 11.7687H180.826C180.124 11.7548 179.424 11.8463 178.749 12.0404C178.162 12.2244 177.829 12.5048 177.732 12.9167V19.3312C177.743 19.439 177.73 19.5478 177.694 19.6499C177.658 19.752 177.599 19.8449 177.523 19.9219C177.447 19.9989 177.355 20.0581 177.253 20.0954C177.151 20.1326 177.043 20.147 176.935 20.1374Z" fill="white"/>
<path d="M192.419 20.1375C191.891 20.2178 191.351 20.1727 190.844 20.006C190.336 19.8393 189.875 19.5556 189.497 19.1778C189.119 18.8 188.835 18.3387 188.669 17.831C188.502 17.3234 188.457 16.7837 188.537 16.2555V13.9771C188.453 13.4482 188.495 12.9069 188.661 12.3974C188.826 11.888 189.11 11.425 189.488 11.0463C189.867 10.6675 190.33 10.3839 190.839 10.2186C191.349 10.0533 191.89 10.0109 192.419 10.0951H196.284V7.02802C196.272 6.91211 196.284 6.79499 196.32 6.68423C196.357 6.57347 196.416 6.47154 196.494 6.38503C196.572 6.29853 196.667 6.22936 196.774 6.18203C196.88 6.13469 196.995 6.11023 197.112 6.11023C197.228 6.11023 197.344 6.13469 197.45 6.18203C197.556 6.22936 197.652 6.29853 197.73 6.38503C197.808 6.47154 197.867 6.57347 197.903 6.68423C197.939 6.79499 197.952 6.91211 197.94 7.02802V19.2963C197.952 19.4122 197.939 19.5293 197.903 19.6401C197.867 19.7508 197.808 19.8528 197.73 19.9393C197.652 20.0258 197.556 20.095 197.45 20.1423C197.344 20.1896 197.228 20.2141 197.112 20.2141C196.995 20.2141 196.88 20.1896 196.774 20.1423C196.667 20.095 196.572 20.0258 196.494 19.9393C196.416 19.8528 196.357 19.7508 196.32 19.6401C196.284 19.5293 196.272 19.4122 196.284 19.2963V19.1561C195.942 19.491 195.524 19.7376 195.066 19.8747C194.458 20.057 193.825 20.1427 193.19 20.1288L192.419 20.1375ZM192.419 18.4726H193.173C193.921 18.4922 194.666 18.3764 195.372 18.1308C195.957 17.9147 196.249 17.5729 196.249 17.1055V11.7601H192.402C191.78 11.6916 191.155 11.8572 190.649 12.2245C190.283 12.7314 190.118 13.3556 190.185 13.9771V16.2555C190.114 16.8786 190.283 17.5051 190.658 18.0081C191.166 18.3784 191.795 18.5442 192.419 18.4726Z" fill="white"/>
<path d="M204.74 20.1374C204.293 20.1736 203.844 20.1202 203.418 19.9802C202.992 19.8403 202.598 19.6167 202.26 19.3225C201.969 18.9825 201.748 18.5884 201.61 18.1629C201.471 17.7373 201.418 17.2886 201.454 16.8425C201.385 16.3953 201.423 15.9382 201.564 15.5082C201.705 15.0783 201.945 14.6875 202.265 14.3676C202.585 14.0477 202.976 13.8075 203.406 13.6666C203.836 13.5257 204.293 13.4879 204.74 13.5564H208.929C208.94 13.2952 208.898 13.0344 208.804 12.7902C208.711 12.546 208.568 12.3236 208.385 12.1368C207.884 11.8395 207.301 11.7077 206.72 11.76H205.572C205.075 11.7436 204.578 11.7877 204.092 11.8914C203.951 11.9202 203.817 11.9779 203.699 12.0609C203.582 12.1438 203.483 12.2502 203.408 12.3734C203.332 12.5897 203.206 12.785 203.04 12.943C202.876 13.058 202.679 13.1136 202.479 13.1007C202.361 13.1084 202.243 13.0922 202.132 13.053C202.02 13.0139 201.918 12.9526 201.831 12.8729C201.751 12.7931 201.695 12.6923 201.67 12.5821C201.645 12.472 201.653 12.357 201.69 12.2507C201.771 11.9053 201.923 11.5807 202.137 11.2983C202.352 11.0159 202.624 10.782 202.935 10.612C203.756 10.2281 204.658 10.0506 205.564 10.095H206.712C207.241 10.0108 207.782 10.0531 208.291 10.2185C208.801 10.3838 209.264 10.6674 209.643 11.0461C210.021 11.4249 210.305 11.8879 210.47 12.3973C210.636 12.9067 210.678 13.4481 210.594 13.977V19.305C210.536 19.4803 210.425 19.6329 210.275 19.7411C210.126 19.8494 209.946 19.9076 209.761 19.9076C209.577 19.9076 209.397 19.8494 209.247 19.7411C209.098 19.6329 208.986 19.4803 208.929 19.305V18.858C208.545 19.2936 208.067 19.6355 207.531 19.8573C206.995 20.0791 206.414 20.1749 205.835 20.1374H204.74ZM204.74 18.4725H205.844C206.307 18.4767 206.768 18.4297 207.22 18.3323C207.62 18.2592 207.998 18.0942 208.324 17.8503C208.642 17.5909 208.859 17.2281 208.938 16.825V15.2214H204.74C204.28 15.1691 203.816 15.2842 203.434 15.5456C203.175 15.9254 203.06 16.3854 203.11 16.8425C203.056 17.3027 203.171 17.7667 203.434 18.1482C203.816 18.4096 204.28 18.5247 204.74 18.4725Z" fill="white"/>
<path d="M218.559 20.1375C218.039 20.1803 217.516 20.1195 217.019 19.9586C216.523 19.7976 216.064 19.5397 215.668 19.1999C215.33 18.8079 215.074 18.3527 214.915 17.8606C214.755 17.3686 214.695 16.8497 214.739 16.3343V11.76H213.81C213.678 11.8033 213.538 11.8147 213.401 11.7934C213.264 11.7721 213.135 11.7186 213.022 11.6374C212.91 11.5561 212.819 11.4494 212.756 11.326C212.693 11.2026 212.66 11.0661 212.66 10.9275C212.66 10.789 212.693 10.6524 212.756 10.529C212.819 10.4056 212.91 10.299 213.022 10.2177C213.135 10.1365 213.264 10.083 213.401 10.0617C213.538 10.0403 213.678 10.0518 213.81 10.095H214.782V8.64914C214.782 8.42835 214.87 8.21661 215.026 8.06048C215.182 7.90436 215.394 7.81665 215.615 7.81665C215.836 7.81665 216.048 7.90436 216.204 8.06048C216.36 8.21661 216.447 8.42835 216.447 8.64914V10.095H218.726C218.835 10.095 218.943 10.1166 219.044 10.1584C219.145 10.2003 219.237 10.2616 219.315 10.3389C219.392 10.4162 219.453 10.508 219.495 10.609C219.537 10.71 219.558 10.8182 219.558 10.9275C219.558 11.0369 219.537 11.1451 219.495 11.2461C219.453 11.3471 219.392 11.4389 219.315 11.5162C219.237 11.5935 219.145 11.6548 219.044 11.6967C218.943 11.7385 218.835 11.76 218.726 11.76H216.439V16.3343C216.366 16.9358 216.529 17.5421 216.894 18.0256C217.385 18.3817 217.992 18.5412 218.594 18.4725C218.816 18.4567 219.035 18.5256 219.208 18.6653C219.285 18.7521 219.344 18.8534 219.382 18.9632C219.419 19.073 219.435 19.1892 219.427 19.305C219.444 19.4215 219.434 19.5405 219.396 19.652C219.358 19.7636 219.294 19.8643 219.209 19.9459C219.124 20.0275 219.02 20.0874 218.907 20.1208C218.794 20.1541 218.675 20.1599 218.559 20.1375Z" fill="white"/>
<path d="M222.976 8.4739C222.849 8.48454 222.721 8.46736 222.602 8.42356C222.482 8.37976 222.373 8.31039 222.283 8.22029C222.193 8.1302 222.124 8.02154 222.08 7.90188C222.036 7.78223 222.019 7.65446 222.03 7.52749V6.9316C222.013 6.80452 222.026 6.67532 222.068 6.55427C222.11 6.43323 222.18 6.32368 222.272 6.23434C222.364 6.145 222.475 6.07833 222.598 6.03965C222.72 6.00096 222.849 5.99132 222.976 6.01148H223.546C223.667 5.99952 223.79 6.01548 223.905 6.05817C224.02 6.10085 224.124 6.16913 224.208 6.25783C224.293 6.34652 224.356 6.45329 224.393 6.57004C224.43 6.68678 224.44 6.81044 224.422 6.9316V7.52749C224.422 8.15843 224.124 8.4739 223.546 8.4739H222.976ZM223.256 20.1375C223.143 20.1536 223.028 20.1432 222.92 20.107C222.811 20.0709 222.713 20.01 222.632 19.9293C222.551 19.8485 222.491 19.7501 222.454 19.6417C222.418 19.5334 222.408 19.4181 222.424 19.305V10.9276C222.424 10.7068 222.512 10.495 222.668 10.3389C222.824 10.1828 223.036 10.0951 223.256 10.0951C223.477 10.0951 223.689 10.1828 223.845 10.3389C224.001 10.495 224.089 10.7068 224.089 10.9276V19.305C224.105 19.4181 224.095 19.5334 224.058 19.6417C224.022 19.7501 223.961 19.8485 223.881 19.9293C223.8 20.01 223.701 20.0709 223.593 20.107C223.485 20.1432 223.369 20.1536 223.256 20.1375Z" fill="white"/>
<path d="M231.415 20.1374C230.888 20.1797 230.358 20.117 229.856 19.9531C229.353 19.7891 228.888 19.5271 228.488 19.1823C228.142 18.7858 227.88 18.324 227.716 17.8243C227.552 17.3246 227.489 16.7971 227.533 16.2729V13.977C227.487 13.4487 227.548 12.9166 227.713 12.4123C227.877 11.908 228.14 11.4419 228.488 11.0414C228.889 10.6981 229.354 10.4377 229.857 10.2753C230.359 10.1128 230.889 10.0515 231.415 10.095H233.036C233.565 10.0108 234.106 10.0531 234.616 10.2185C235.125 10.3838 235.588 10.6674 235.967 11.0461C236.345 11.4249 236.629 11.8879 236.794 12.3973C236.96 12.9067 237.002 13.4481 236.918 13.977V16.2554C236.998 16.7836 236.953 17.3233 236.786 17.8309C236.62 18.3386 236.336 18.7999 235.958 19.1777C235.58 19.5555 235.119 19.8392 234.611 20.0059C234.104 20.1726 233.564 20.2177 233.036 20.1374H231.415ZM229.198 16.2729C229.119 16.8953 229.286 17.5237 229.662 18.0255C230.168 18.3944 230.793 18.5602 231.415 18.49H233.036C233.658 18.5585 234.282 18.3929 234.789 18.0255C235.152 17.5178 235.314 16.8934 235.244 16.2729V13.9945C235.315 13.374 235.153 12.7493 234.789 12.2419C234.281 11.8777 233.656 11.7153 233.036 11.7863H231.415C230.96 11.7656 230.505 11.831 230.074 11.979C229.918 12.036 229.777 12.1257 229.659 12.2421C229.541 12.3585 229.449 12.4989 229.39 12.6538C229.243 13.0877 229.177 13.5454 229.198 14.0033V16.2729Z" fill="white"/>
<path d="M241.194 20.1374C241.081 20.1535 240.966 20.1431 240.858 20.107C240.749 20.0708 240.651 20.01 240.57 19.9292C240.489 19.8484 240.428 19.75 240.392 19.6416C240.356 19.5333 240.346 19.418 240.362 19.3049V10.9275C240.362 10.7067 240.45 10.4949 240.606 10.3388C240.762 10.1827 240.974 10.095 241.194 10.095C241.415 10.095 241.627 10.1827 241.783 10.3388C241.939 10.4949 242.027 10.7067 242.027 10.9275V11.2517C242.428 10.8484 242.911 10.5362 243.443 10.3366C243.975 10.137 244.544 10.0546 245.111 10.095H245.672C246.201 10.0108 246.743 10.0531 247.252 10.2185C247.761 10.3838 248.224 10.6674 248.603 11.0461C248.982 11.4249 249.265 11.8879 249.431 12.3973C249.596 12.9067 249.638 13.4481 249.554 13.977V19.3049C249.497 19.4803 249.385 19.6329 249.236 19.7411C249.086 19.8494 248.906 19.9076 248.722 19.9076C248.537 19.9076 248.357 19.8494 248.208 19.7411C248.058 19.6329 247.947 19.4803 247.889 19.3049V13.977C247.961 13.3539 247.791 12.727 247.416 12.2244C246.909 11.8594 246.284 11.6969 245.663 11.7687H245.103C244.404 11.7548 243.706 11.8464 243.035 12.0404C242.447 12.2244 242.106 12.5048 242.018 12.9167V19.3312C242.029 19.4415 242.016 19.5528 241.978 19.657C241.941 19.7612 241.88 19.8556 241.801 19.9331C241.722 20.0106 241.626 20.0693 241.521 20.1046C241.416 20.14 241.304 20.1512 241.194 20.1374Z" fill="white"/>
<path d="M0 4.47791V6.71248H15.3967L0 22.1092L1.58611 23.6865L20.7947 4.47791H0Z" fill="#F7B749"/>
<path d="M23.0293 2.23458L25.2727 0H0V2.23458H23.0293Z" fill="#ED362F"/>
<path d="M24.6154 3.82073V26.85H26.85V1.57739L24.6154 3.82073Z" fill="#43B85C"/>
<path d="M22.3808 26.85V6.0553L3.16345 25.2727L4.74957 26.85L20.1375 11.4621V26.85H22.3808Z" fill="#2CB4E2"/>
</g>
<defs>
<clipPath id="clip0_423_1470">
<rect width="249.546" height="26.85" fill="white"/>
</clipPath>
</defs>
</svg>
